<?xml version="1.0" encoding="UTF-8" standalone="no"?>
<!DOCTYPE svg PUBLIC "-//W3C//DTD SVG 1.1//EN"
 "http://www.w3.org/Graphics/SVG/1.1/DTD/svg11.dtd">
<!-- Generated by graphviz version 2.36.0 (20140111.2315)
 -->
<!-- Title: %3 Pages: 1 -->
<svg width="300pt" height="332pt"
 viewBox="0.00 0.00 299.78 332.00" xmlns="http://www.w3.org/2000/svg" xmlns:xlink="http://www.w3.org/1999/xlink">
<g id="graph0" class="graph" transform="scale(1 1) rotate(0) translate(4 328)">
<title>%3</title>
<polygon fill="white" stroke="none" points="-4,4 -4,-328 295.779,-328 295.779,4 -4,4"/>
<!-- l1analysis -->
<g id="node1" class="node"><title>l1analysis</title>
<ellipse fill="none" stroke="black" cx="143.779" cy="-90" rx="46.2191" ry="18"/>
<text text-anchor="middle" x="143.779" y="-86.3" font-family="Times,serif" font-size="14.00">l1analysis</text>
</g>
<!-- datasink (io) -->
<g id="node2" class="node"><title>datasink (io)</title>
<ellipse fill="none" stroke="black" cx="189.779" cy="-18" rx="55.3682" ry="18"/>
<text text-anchor="middle" x="189.779" y="-14.3" font-family="Times,serif" font-size="14.00">datasink (io)</text>
</g>
<!-- l1analysis&#45;&gt;datasink (io) -->
<g id="edge1" class="edge"><title>l1analysis&#45;&gt;datasink (io)</title>
<path fill="none" stroke="black" d="M154.68,-72.411C160.156,-64.0774 166.912,-53.7972 173.029,-44.4883"/>
<polygon fill="black" stroke="black" points="176.069,-46.2354 178.636,-35.9562 170.219,-42.3911 176.069,-46.2354"/>
</g>
<!-- selectfiles (io) -->
<g id="node3" class="node"><title>selectfiles (io)</title>
<ellipse fill="none" stroke="black" cx="180.779" cy="-234" rx="61.1419" ry="18"/>
<text text-anchor="middle" x="180.779" y="-230.3" font-family="Times,serif" font-size="14.00">selectfiles (io)</text>
</g>
<!-- preproc -->
<g id="node4" class="node"><title>preproc</title>
<ellipse fill="none" stroke="black" cx="253.779" cy="-162" rx="37.5442" ry="18"/>
<text text-anchor="middle" x="253.779" y="-158.3" font-family="Times,serif" font-size="14.00">preproc</text>
</g>
<!-- selectfiles (io)&#45;&gt;preproc -->
<g id="edge2" class="edge"><title>selectfiles (io)&#45;&gt;preproc</title>
<path fill="none" stroke="black" d="M198.079,-216.411C207.714,-207.172 219.845,-195.539 230.324,-185.491"/>
<polygon fill="black" stroke="black" points="232.808,-187.958 237.603,-178.511 227.963,-182.906 232.808,-187.958"/>
</g>
<!-- preproc&#45;&gt;l1analysis -->
<g id="edge7" class="edge"><title>preproc&#45;&gt;l1analysis</title>
<path fill="none" stroke="black" d="M232.046,-147.17C215.904,-136.898 193.638,-122.729 175.508,-111.191"/>
<polygon fill="black" stroke="black" points="177.301,-108.184 166.985,-105.768 173.543,-114.089 177.301,-108.184"/>
</g>
<!-- preproc&#45;&gt;datasink (io) -->
<g id="edge8" class="edge"><title>preproc&#45;&gt;datasink (io)</title>
<path fill="none" stroke="black" d="M246.186,-144.153C235.227,-119.838 214.865,-74.6598 201.836,-45.753"/>
<polygon fill="black" stroke="black" points="204.861,-43.9465 197.561,-36.2678 198.48,-46.8228 204.861,-43.9465"/>
</g>
<!-- infosource (utility) -->
<g id="node5" class="node"><title>infosource (utility)</title>
<ellipse fill="none" stroke="black" cx="135.779" cy="-306" rx="77.0154" ry="18"/>
<text text-anchor="middle" x="135.779" y="-302.3" font-family="Times,serif" font-size="14.00">infosource (utility)</text>
</g>
<!-- infosource (utility)&#45;&gt;l1analysis -->
<g id="edge3" class="edge"><title>infosource (utility)&#45;&gt;l1analysis</title>
<path fill="none" stroke="black" d="M106.654,-289.088C58.7143,-260.793 -27.9371,-199.476 9.77878,-144 27.7082,-117.628 61.0059,-104.378 89.9217,-97.7211"/>
<polygon fill="black" stroke="black" points="90.8608,-101.101 99.9345,-95.6308 89.4302,-94.2484 90.8608,-101.101"/>
</g>
<!-- infosource (utility)&#45;&gt;selectfiles (io) -->
<g id="edge4" class="edge"><title>infosource (utility)&#45;&gt;selectfiles (io)</title>
<path fill="none" stroke="black" d="M146.672,-288.055C152.034,-279.715 158.606,-269.491 164.546,-260.252"/>
<polygon fill="black" stroke="black" points="167.522,-262.093 169.986,-251.789 161.634,-258.308 167.522,-262.093"/>
</g>
<!-- infosource (utility)&#45;&gt;preproc -->
<g id="edge5" class="edge"><title>infosource (utility)&#45;&gt;preproc</title>
<path fill="none" stroke="black" d="M190.474,-293.233C213.017,-285.444 237.034,-272.693 250.779,-252 262.776,-233.938 262.528,-208.953 259.851,-190.052"/>
<polygon fill="black" stroke="black" points="263.266,-189.256 258.123,-179.993 256.367,-190.442 263.266,-189.256"/>
</g>
<!-- getsubjectinfo (utility) -->
<g id="node6" class="node"><title>getsubjectinfo (utility)</title>
<ellipse fill="none" stroke="black" cx="108.779" cy="-162" rx="89.5377" ry="18"/>
<text text-anchor="middle" x="108.779" y="-158.3" font-family="Times,serif" font-size="14.00">getsubjectinfo (utility)</text>
</g>
<!-- infosource (utility)&#45;&gt;getsubjectinfo (utility) -->
<g id="edge6" class="edge"><title>infosource (utility)&#45;&gt;getsubjectinfo (utility)</title>
<path fill="none" stroke="black" d="M125.521,-288.006C120.018,-277.925 113.768,-264.675 110.779,-252 105.997,-231.724 105.696,-208.127 106.483,-190.326"/>
<polygon fill="black" stroke="black" points="109.978,-190.516 107.065,-180.33 102.99,-190.109 109.978,-190.516"/>
</g>
<!-- getsubjectinfo (utility)&#45;&gt;l1analysis -->
<g id="edge9" class="edge"><title>getsubjectinfo (utility)&#45;&gt;l1analysis</title>
<path fill="none" stroke="black" d="M117.251,-144.055C121.335,-135.887 126.323,-125.912 130.867,-116.824"/>
<polygon fill="black" stroke="black" points="134.043,-118.299 135.384,-107.789 127.782,-115.168 134.043,-118.299"/>
</g>
</g>
</svg>
