<?xml version="1.0" encoding="UTF-8" standalone="no"?>
<!DOCTYPE svg PUBLIC "-//W3C//DTD SVG 1.1//EN"
 "http://www.w3.org/Graphics/SVG/1.1/DTD/svg11.dtd">
<!-- Generated by graphviz version 2.36.0 (20140111.2315)
 -->
<!-- Title: %3 Pages: 1 -->
<svg width="1152pt" height="908pt"
 viewBox="0.00 0.00 1152.00 908.00" xmlns="http://www.w3.org/2000/svg" xmlns:xlink="http://www.w3.org/1999/xlink">
<g id="graph0" class="graph" transform="scale(1 1) rotate(0) translate(4 904)">
<title>%3</title>
<polygon fill="white" stroke="none" points="-4,4 -4,-904 1148,-904 1148,4 -4,4"/>
<!-- preproc (bbregister (freesurfer) -->
<g id="node1" class="node"><title>preproc (bbregister (freesurfer)</title>
<ellipse fill="none" stroke="black" cx="753" cy="-594" rx="120.359" ry="18"/>
<text text-anchor="middle" x="753" y="-590.3" font-family="Times,serif" font-size="14.00">preproc (bbregister (freesurfer)</text>
</g>
<!-- l1analysis (applyVolReg (freesurfer) -->
<g id="node2" class="node"><title>l1analysis (applyVolReg (freesurfer)</title>
<ellipse fill="none" stroke="black" cx="728" cy="-162" rx="140.082" ry="18"/>
<text text-anchor="middle" x="728" y="-158.3" font-family="Times,serif" font-size="14.00">l1analysis (applyVolReg (freesurfer)</text>
</g>
<!-- preproc (bbregister (freesurfer)&#45;&gt;l1analysis (applyVolReg (freesurfer) -->
<g id="edge1" class="edge"><title>preproc (bbregister (freesurfer)&#45;&gt;l1analysis (applyVolReg (freesurfer)</title>
<path fill="none" stroke="black" d="M741.454,-576.012C719.682,-543.003 672.879,-467.179 652,-396 642.95,-365.149 646.557,-356.113 645,-324 642.667,-275.89 629.368,-257.391 654,-216 661.413,-203.543 673.016,-193.208 684.853,-185.074"/>
<polygon fill="black" stroke="black" points="686.939,-187.893 693.458,-179.541 683.153,-182.006 686.939,-187.893"/>
</g>
<!-- datasink (io) -->
<g id="node3" class="node"><title>datasink (io)</title>
<ellipse fill="none" stroke="black" cx="915" cy="-18" rx="55.3682" ry="18"/>
<text text-anchor="middle" x="915" y="-14.3" font-family="Times,serif" font-size="14.00">datasink (io)</text>
</g>
<!-- preproc (bbregister (freesurfer)&#45;&gt;datasink (io) -->
<g id="edge2" class="edge"><title>preproc (bbregister (freesurfer)&#45;&gt;datasink (io)</title>
<path fill="none" stroke="black" d="M760,-575.708C773.441,-544.139 805.441,-476.342 849,-432 870.261,-410.356 890.102,-421.198 907,-396 947.411,-335.741 934,-307.555 934,-235 934,-235 934,-235 934,-161 934,-120.86 926.449,-74.897 920.868,-46.4045"/>
<polygon fill="black" stroke="black" points="924.255,-45.4976 918.845,-36.3884 917.394,-46.8834 924.255,-45.4976"/>
</g>
<!-- preproc (applyVolTrans (freesurfer) -->
<g id="node4" class="node"><title>preproc (applyVolTrans (freesurfer)</title>
<ellipse fill="none" stroke="black" cx="978" cy="-522" rx="137.183" ry="18"/>
<text text-anchor="middle" x="978" y="-518.3" font-family="Times,serif" font-size="14.00">preproc (applyVolTrans (freesurfer)</text>
</g>
<!-- preproc (bbregister (freesurfer)&#45;&gt;preproc (applyVolTrans (freesurfer) -->
<g id="edge3" class="edge"><title>preproc (bbregister (freesurfer)&#45;&gt;preproc (applyVolTrans (freesurfer)</title>
<path fill="none" stroke="black" d="M802.656,-577.552C836.487,-567.026 881.483,-553.027 917.423,-541.846"/>
<polygon fill="black" stroke="black" points="918.794,-545.085 927.303,-538.772 916.715,-538.401 918.794,-545.085"/>
</g>
<!-- l1analysis (mriconvert (freesurfer) -->
<g id="node11" class="node"><title>l1analysis (mriconvert (freesurfer)</title>
<ellipse fill="none" stroke="black" cx="732" cy="-90" rx="132.382" ry="18"/>
<text text-anchor="middle" x="732" y="-86.3" font-family="Times,serif" font-size="14.00">l1analysis (mriconvert (freesurfer)</text>
</g>
<!-- l1analysis (applyVolReg (freesurfer)&#45;&gt;l1analysis (mriconvert (freesurfer) -->
<g id="edge8" class="edge"><title>l1analysis (applyVolReg (freesurfer)&#45;&gt;l1analysis (mriconvert (freesurfer)</title>
<path fill="none" stroke="black" d="M728.989,-143.697C729.43,-135.983 729.959,-126.712 730.451,-118.112"/>
<polygon fill="black" stroke="black" points="733.946,-118.288 731.023,-108.104 726.958,-117.888 733.946,-118.288"/>
</g>
<!-- preproc (binarize (freesurfer) -->
<g id="node19" class="node"><title>preproc (binarize (freesurfer)</title>
<ellipse fill="none" stroke="black" cx="972" cy="-450" rx="113.61" ry="18"/>
<text text-anchor="middle" x="972" y="-446.3" font-family="Times,serif" font-size="14.00">preproc (binarize (freesurfer)</text>
</g>
<!-- preproc (applyVolTrans (freesurfer)&#45;&gt;preproc (binarize (freesurfer) -->
<g id="edge23" class="edge"><title>preproc (applyVolTrans (freesurfer)&#45;&gt;preproc (binarize (freesurfer)</title>
<path fill="none" stroke="black" d="M976.517,-503.697C975.856,-495.983 975.061,-486.712 974.324,-478.112"/>
<polygon fill="black" stroke="black" points="977.807,-477.769 973.466,-468.104 970.833,-478.367 977.807,-477.769"/>
</g>
<!-- preproc (tsnr (misc) -->
<g id="node5" class="node"><title>preproc (tsnr (misc)</title>
<ellipse fill="none" stroke="black" cx="286" cy="-594" rx="81.3646" ry="18"/>
<text text-anchor="middle" x="286" y="-590.3" font-family="Times,serif" font-size="14.00">preproc (tsnr (misc)</text>
</g>
<!-- preproc (art (rapidart) -->
<g id="node6" class="node"><title>preproc (art (rapidart)</title>
<ellipse fill="none" stroke="black" cx="87" cy="-522" rx="87.613" ry="18"/>
<text text-anchor="middle" x="87" y="-518.3" font-family="Times,serif" font-size="14.00">preproc (art (rapidart)</text>
</g>
<!-- preproc (tsnr (misc)&#45;&gt;preproc (art (rapidart) -->
<g id="edge4" class="edge"><title>preproc (tsnr (misc)&#45;&gt;preproc (art (rapidart)</title>
<path fill="none" stroke="black" d="M244.767,-578.496C213.993,-567.671 171.737,-552.807 138.702,-541.187"/>
<polygon fill="black" stroke="black" points="139.803,-537.864 129.208,-537.847 137.48,-544.467 139.803,-537.864"/>
</g>
<!-- preproc (smooth (spm) -->
<g id="node7" class="node"><title>preproc (smooth (spm)</title>
<ellipse fill="none" stroke="black" cx="286" cy="-522" rx="92.413" ry="18"/>
<text text-anchor="middle" x="286" y="-518.3" font-family="Times,serif" font-size="14.00">preproc (smooth (spm)</text>
</g>
<!-- preproc (tsnr (misc)&#45;&gt;preproc (smooth (spm) -->
<g id="edge5" class="edge"><title>preproc (tsnr (misc)&#45;&gt;preproc (smooth (spm)</title>
<path fill="none" stroke="black" d="M286,-575.697C286,-567.983 286,-558.712 286,-550.112"/>
<polygon fill="black" stroke="black" points="289.5,-550.104 286,-540.104 282.5,-550.104 289.5,-550.104"/>
</g>
<!-- preproc (art (rapidart)&#45;&gt;datasink (io) -->
<g id="edge10" class="edge"><title>preproc (art (rapidart)&#45;&gt;datasink (io)</title>
<path fill="none" stroke="black" d="M113.842,-504.734C148.385,-481.516 204,-435.379 204,-379 204,-379 204,-379 204,-161 204,-30.024 673.843,-18.1545 849.65,-18.2978"/>
<polygon fill="black" stroke="black" points="849.793,-21.798 859.801,-18.3198 849.808,-14.798 849.793,-21.798"/>
</g>
<!-- l1analysis (modelspec (modelgen) -->
<g id="node12" class="node"><title>l1analysis (modelspec (modelgen)</title>
<ellipse fill="none" stroke="black" cx="482" cy="-450" rx="132.382" ry="18"/>
<text text-anchor="middle" x="482" y="-446.3" font-family="Times,serif" font-size="14.00">l1analysis (modelspec (modelgen)</text>
</g>
<!-- preproc (art (rapidart)&#45;&gt;l1analysis (modelspec (modelgen) -->
<g id="edge9" class="edge"><title>preproc (art (rapidart)&#45;&gt;l1analysis (modelspec (modelgen)</title>
<path fill="none" stroke="black" d="M150.903,-509.675C217.113,-497.942 321.036,-479.525 394.775,-466.458"/>
<polygon fill="black" stroke="black" points="395.737,-469.842 404.973,-464.65 394.515,-462.949 395.737,-469.842"/>
</g>
<!-- preproc (smooth (spm)&#45;&gt;l1analysis (modelspec (modelgen) -->
<g id="edge26" class="edge"><title>preproc (smooth (spm)&#45;&gt;l1analysis (modelspec (modelgen)</title>
<path fill="none" stroke="black" d="M328.529,-505.811C357.609,-495.426 396.404,-481.57 427.713,-470.388"/>
<polygon fill="black" stroke="black" points="428.93,-473.67 437.17,-467.011 426.575,-467.078 428.93,-473.67"/>
</g>
<!-- preproc (fssource (io) -->
<g id="node8" class="node"><title>preproc (fssource (io)</title>
<ellipse fill="none" stroke="black" cx="978" cy="-594" rx="87.1385" ry="18"/>
<text text-anchor="middle" x="978" y="-590.3" font-family="Times,serif" font-size="14.00">preproc (fssource (io)</text>
</g>
<!-- preproc (fssource (io)&#45;&gt;preproc (applyVolTrans (freesurfer) -->
<g id="edge6" class="edge"><title>preproc (fssource (io)&#45;&gt;preproc (applyVolTrans (freesurfer)</title>
<path fill="none" stroke="black" d="M978,-575.697C978,-567.983 978,-558.712 978,-550.112"/>
<polygon fill="black" stroke="black" points="981.5,-550.104 978,-540.104 974.5,-550.104 981.5,-550.104"/>
</g>
<!-- selectfiles (io) -->
<g id="node9" class="node"><title>selectfiles (io)</title>
<ellipse fill="none" stroke="black" cx="679" cy="-882" rx="61.1419" ry="18"/>
<text text-anchor="middle" x="679" y="-878.3" font-family="Times,serif" font-size="14.00">selectfiles (io)</text>
</g>
<!-- preproc (despike (afni) -->
<g id="node10" class="node"><title>preproc (despike (afni)</title>
<ellipse fill="none" stroke="black" cx="679" cy="-810" rx="91.4625" ry="18"/>
<text text-anchor="middle" x="679" y="-806.3" font-family="Times,serif" font-size="14.00">preproc (despike (afni)</text>
</g>
<!-- selectfiles (io)&#45;&gt;preproc (despike (afni) -->
<g id="edge7" class="edge"><title>selectfiles (io)&#45;&gt;preproc (despike (afni)</title>
<path fill="none" stroke="black" d="M679,-863.697C679,-855.983 679,-846.712 679,-838.112"/>
<polygon fill="black" stroke="black" points="682.5,-838.104 679,-828.104 675.5,-838.104 682.5,-838.104"/>
</g>
<!-- preproc (sliceTiming (spm) -->
<g id="node16" class="node"><title>preproc (sliceTiming (spm)</title>
<ellipse fill="none" stroke="black" cx="679" cy="-738" rx="108.31" ry="18"/>
<text text-anchor="middle" x="679" y="-734.3" font-family="Times,serif" font-size="14.00">preproc (sliceTiming (spm)</text>
</g>
<!-- preproc (despike (afni)&#45;&gt;preproc (sliceTiming (spm) -->
<g id="edge13" class="edge"><title>preproc (despike (afni)&#45;&gt;preproc (sliceTiming (spm)</title>
<path fill="none" stroke="black" d="M679,-791.697C679,-783.983 679,-774.712 679,-766.112"/>
<polygon fill="black" stroke="black" points="682.5,-766.104 679,-756.104 675.5,-766.104 682.5,-766.104"/>
</g>
<!-- l1analysis (mriconvert (freesurfer)&#45;&gt;datasink (io) -->
<g id="edge29" class="edge"><title>l1analysis (mriconvert (freesurfer)&#45;&gt;datasink (io)</title>
<path fill="none" stroke="black" d="M774.444,-72.7646C803.472,-61.6611 841.852,-46.9802 871.171,-35.7652"/>
<polygon fill="black" stroke="black" points="872.651,-38.9466 880.74,-32.1049 870.15,-32.4086 872.651,-38.9466"/>
</g>
<!-- l1analysis (level1design (spm) -->
<g id="node17" class="node"><title>l1analysis (level1design (spm)</title>
<ellipse fill="none" stroke="black" cx="780" cy="-378" rx="118.409" ry="18"/>
<text text-anchor="middle" x="780" y="-374.3" font-family="Times,serif" font-size="14.00">l1analysis (level1design (spm)</text>
</g>
<!-- l1analysis (modelspec (modelgen)&#45;&gt;l1analysis (level1design (spm) -->
<g id="edge16" class="edge"><title>l1analysis (modelspec (modelgen)&#45;&gt;l1analysis (level1design (spm)</title>
<path fill="none" stroke="black" d="M545.198,-434.155C593.07,-422.91 658.866,-407.454 708.631,-395.764"/>
<polygon fill="black" stroke="black" points="709.743,-399.099 718.678,-393.405 708.142,-392.284 709.743,-399.099"/>
</g>
<!-- getsubjectinfo (utility) -->
<g id="node13" class="node"><title>getsubjectinfo (utility)</title>
<ellipse fill="none" stroke="black" cx="487" cy="-522" rx="89.5377" ry="18"/>
<text text-anchor="middle" x="487" y="-518.3" font-family="Times,serif" font-size="14.00">getsubjectinfo (utility)</text>
</g>
<!-- getsubjectinfo (utility)&#45;&gt;l1analysis (modelspec (modelgen) -->
<g id="edge11" class="edge"><title>getsubjectinfo (utility)&#45;&gt;l1analysis (modelspec (modelgen)</title>
<path fill="none" stroke="black" d="M485.764,-503.697C485.213,-495.983 484.551,-486.712 483.937,-478.112"/>
<polygon fill="black" stroke="black" points="487.425,-477.83 483.222,-468.104 480.443,-478.328 487.425,-477.83"/>
</g>
<!-- l1analysis (level1estimate (spm) -->
<g id="node14" class="node"><title>l1analysis (level1estimate (spm)</title>
<ellipse fill="none" stroke="black" cx="780" cy="-306" rx="126.133" ry="18"/>
<text text-anchor="middle" x="780" y="-302.3" font-family="Times,serif" font-size="14.00">l1analysis (level1estimate (spm)</text>
</g>
<!-- l1analysis (conestimate (spm) -->
<g id="node15" class="node"><title>l1analysis (conestimate (spm)</title>
<ellipse fill="none" stroke="black" cx="780" cy="-234" rx="116.484" ry="18"/>
<text text-anchor="middle" x="780" y="-230.3" font-family="Times,serif" font-size="14.00">l1analysis (conestimate (spm)</text>
</g>
<!-- l1analysis (level1estimate (spm)&#45;&gt;l1analysis (conestimate (spm) -->
<g id="edge12" class="edge"><title>l1analysis (level1estimate (spm)&#45;&gt;l1analysis (conestimate (spm)</title>
<path fill="none" stroke="black" d="M780,-287.697C780,-279.983 780,-270.712 780,-262.112"/>
<polygon fill="black" stroke="black" points="783.5,-262.104 780,-252.104 776.5,-262.104 783.5,-262.104"/>
</g>
<!-- l1analysis (conestimate (spm)&#45;&gt;l1analysis (applyVolReg (freesurfer) -->
<g id="edge27" class="edge"><title>l1analysis (conestimate (spm)&#45;&gt;l1analysis (applyVolReg (freesurfer)</title>
<path fill="none" stroke="black" d="M767.412,-216.055C761.245,-207.753 753.691,-197.584 746.852,-188.378"/>
<polygon fill="black" stroke="black" points="749.606,-186.216 740.833,-180.275 743.987,-190.39 749.606,-186.216"/>
</g>
<!-- l1analysis (conestimate (spm)&#45;&gt;datasink (io) -->
<g id="edge28" class="edge"><title>l1analysis (conestimate (spm)&#45;&gt;datasink (io)</title>
<path fill="none" stroke="black" d="M826.177,-217.329C844.495,-208.935 864.204,-196.789 877,-180 907.083,-140.531 913.868,-80.9899 915.1,-46.457"/>
<polygon fill="black" stroke="black" points="918.605,-46.2559 915.328,-36.1809 911.607,-46.1009 918.605,-46.2559"/>
</g>
<!-- preproc (realign (spm) -->
<g id="node18" class="node"><title>preproc (realign (spm)</title>
<ellipse fill="none" stroke="black" cx="679" cy="-666" rx="90.4879" ry="18"/>
<text text-anchor="middle" x="679" y="-662.3" font-family="Times,serif" font-size="14.00">preproc (realign (spm)</text>
</g>
<!-- preproc (sliceTiming (spm)&#45;&gt;preproc (realign (spm) -->
<g id="edge15" class="edge"><title>preproc (sliceTiming (spm)&#45;&gt;preproc (realign (spm)</title>
<path fill="none" stroke="black" d="M679,-719.697C679,-711.983 679,-702.712 679,-694.112"/>
<polygon fill="black" stroke="black" points="682.5,-694.104 679,-684.104 675.5,-694.104 682.5,-694.104"/>
</g>
<!-- l1analysis (level1design (spm)&#45;&gt;l1analysis (level1estimate (spm) -->
<g id="edge14" class="edge"><title>l1analysis (level1design (spm)&#45;&gt;l1analysis (level1estimate (spm)</title>
<path fill="none" stroke="black" d="M780,-359.697C780,-351.983 780,-342.712 780,-334.112"/>
<polygon fill="black" stroke="black" points="783.5,-334.104 780,-324.104 776.5,-334.104 783.5,-334.104"/>
</g>
<!-- preproc (realign (spm)&#45;&gt;preproc (bbregister (freesurfer) -->
<g id="edge17" class="edge"><title>preproc (realign (spm)&#45;&gt;preproc (bbregister (freesurfer)</title>
<path fill="none" stroke="black" d="M696.913,-648.055C706.117,-639.349 717.489,-628.591 727.583,-619.043"/>
<polygon fill="black" stroke="black" points="730.136,-621.446 734.995,-612.032 725.325,-616.361 730.136,-621.446"/>
</g>
<!-- preproc (realign (spm)&#45;&gt;datasink (io) -->
<g id="edge21" class="edge"><title>preproc (realign (spm)&#45;&gt;datasink (io)</title>
<path fill="none" stroke="black" d="M768.051,-662.541C872.941,-658.115 1039.45,-645.833 1091,-612 1129.49,-586.739 1144,-569.038 1144,-523 1144,-523 1144,-523 1144,-161 1144,-80.7962 1041.29,-44.33 973.44,-28.9909"/>
<polygon fill="black" stroke="black" points="973.799,-25.4878 963.285,-26.7926 972.318,-32.3293 973.799,-25.4878"/>
</g>
<!-- preproc (realign (spm)&#45;&gt;preproc (applyVolTrans (freesurfer) -->
<g id="edge22" class="edge"><title>preproc (realign (spm)&#45;&gt;preproc (applyVolTrans (freesurfer)</title>
<path fill="none" stroke="black" d="M763.805,-659.489C873.753,-651.465 1053.9,-634.979 1074,-612 1084.53,-599.957 1082.13,-589.779 1074,-576 1065.67,-561.879 1052.07,-551.261 1037.71,-543.387"/>
<polygon fill="black" stroke="black" points="1039.2,-540.222 1028.7,-538.832 1036.04,-546.468 1039.2,-540.222"/>
</g>
<!-- preproc (realign (spm)&#45;&gt;preproc (tsnr (misc) -->
<g id="edge18" class="edge"><title>preproc (realign (spm)&#45;&gt;preproc (tsnr (misc)</title>
<path fill="none" stroke="black" d="M614.104,-653.441C543.309,-640.831 430.335,-620.709 357.162,-607.675"/>
<polygon fill="black" stroke="black" points="357.569,-604.193 347.11,-605.885 356.341,-611.084 357.569,-604.193"/>
</g>
<!-- preproc (realign (spm)&#45;&gt;preproc (art (rapidart) -->
<g id="edge19" class="edge"><title>preproc (realign (spm)&#45;&gt;preproc (art (rapidart)</title>
<path fill="none" stroke="black" d="M591.341,-661.335C471.993,-655.334 265.287,-641.05 196,-612 161.286,-597.445 128.874,-568.171 108.567,-547.168"/>
<polygon fill="black" stroke="black" points="111.063,-544.713 101.652,-539.846 105.974,-549.52 111.063,-544.713"/>
</g>
<!-- preproc (realign (spm)&#45;&gt;l1analysis (modelspec (modelgen) -->
<g id="edge20" class="edge"><title>preproc (realign (spm)&#45;&gt;l1analysis (modelspec (modelgen)</title>
<path fill="none" stroke="black" d="M657.617,-648.494C646.342,-638.87 633.018,-625.908 624,-612 596.236,-569.179 618.691,-542.332 585,-504 572.678,-489.981 555.752,-479.16 539.18,-471.062"/>
<polygon fill="black" stroke="black" points="540.587,-467.857 530.041,-466.84 537.652,-474.211 540.587,-467.857"/>
</g>
<!-- preproc (binarize (freesurfer)&#45;&gt;datasink (io) -->
<g id="edge25" class="edge"><title>preproc (binarize (freesurfer)&#45;&gt;datasink (io)</title>
<path fill="none" stroke="black" d="M972,-431.951C972,-405.292 972,-352.115 972,-307 972,-307 972,-307 972,-161 972,-120.031 964.336,-109.571 948,-72 943.894,-62.5568 938.291,-52.8235 932.867,-44.316"/>
<polygon fill="black" stroke="black" points="935.78,-42.3755 927.351,-35.9574 929.938,-46.2314 935.78,-42.3755"/>
</g>
<!-- preproc (binarize (freesurfer)&#45;&gt;l1analysis (level1design (spm) -->
<g id="edge24" class="edge"><title>preproc (binarize (freesurfer)&#45;&gt;l1analysis (level1design (spm)</title>
<path fill="none" stroke="black" d="M928.911,-433.291C900.478,-422.924 863.04,-409.275 832.815,-398.256"/>
<polygon fill="black" stroke="black" points="833.87,-394.915 823.276,-394.778 831.473,-401.492 833.87,-394.915"/>
</g>
</g>
</svg>
