<?xml version="1.0" encoding="UTF-8" standalone="no"?>
<!DOCTYPE svg PUBLIC "-//W3C//DTD SVG 1.1//EN"
 "http://www.w3.org/Graphics/SVG/1.1/DTD/svg11.dtd">
<!-- Generated by graphviz version 2.36.0 (20140111.2315)
 -->
<!-- Title: metaflow Pages: 1 -->
<svg width="808pt" height="953pt"
 viewBox="0.00 0.00 808.00 953.00" xmlns="http://www.w3.org/2000/svg" xmlns:xlink="http://www.w3.org/1999/xlink">
<g id="graph0" class="graph" transform="scale(1 1) rotate(0) translate(4 949)">
<title>metaflow</title>
<polygon fill="white" stroke="none" points="-4,4 -4,-949 804,-949 804,4 -4,4"/>
<text text-anchor="middle" x="400" y="-7.8" font-family="Times,serif" font-size="14.00">metaflow</text>
<g id="clust1" class="cluster"><title>cluster_metaflow_preproc</title>
<polygon fill="none" stroke="black" points="38,-391 38,-829 534,-829 534,-391 38,-391"/>
<text text-anchor="middle" x="286" y="-813.8" font-family="Times,serif" font-size="14.00">preproc</text>
</g>
<g id="clust2" class="cluster"><title>cluster_metaflow_l1analysis</title>
<polygon fill="none" stroke="black" points="542,-31 542,-466 758,-466 758,-31 542,-31"/>
<text text-anchor="middle" x="650" y="-450.8" font-family="Times,serif" font-size="14.00">l1analysis</text>
</g>
<!-- metaflow_infosource -->
<g id="node1" class="node"><title>metaflow_infosource</title>
<polygon fill="#d9d9d9" stroke="black" points="497.25,-945 382.75,-945 378.75,-941 378.75,-909 493.25,-909 497.25,-913 497.25,-945"/>
<polyline fill="none" stroke="black" points="493.25,-941 378.75,-941 "/>
<polyline fill="none" stroke="black" points="493.25,-941 493.25,-909 "/>
<polyline fill="none" stroke="black" points="493.25,-941 497.25,-945 "/>
<text text-anchor="middle" x="438" y="-923.3" font-family="Times,serif" font-size="14.00">infosource (utility)</text>
</g>
<!-- metaflow_getsubjectinfo -->
<g id="node2" class="node"><title>metaflow_getsubjectinfo</title>
<ellipse fill="none" stroke="black" cx="619" cy="-855" rx="89.5377" ry="18"/>
<text text-anchor="middle" x="619" y="-851.3" font-family="Times,serif" font-size="14.00">getsubjectinfo (utility)</text>
</g>
<!-- metaflow_infosource&#45;&gt;metaflow_getsubjectinfo -->
<g id="edge1" class="edge"><title>metaflow_infosource&#45;&gt;metaflow_getsubjectinfo</title>
<path fill="none" stroke="black" d="M482.278,-908.876C508.866,-898.593 542.729,-885.497 570.103,-874.91"/>
<polygon fill="black" stroke="black" points="571.428,-878.151 579.492,-871.279 568.903,-871.622 571.428,-878.151"/>
</g>
<!-- metaflow_selectfiles -->
<g id="node3" class="node"><title>metaflow_selectfiles</title>
<ellipse fill="none" stroke="black" cx="267" cy="-855" rx="61.1419" ry="18"/>
<text text-anchor="middle" x="267" y="-851.3" font-family="Times,serif" font-size="14.00">selectfiles (io)</text>
</g>
<!-- metaflow_infosource&#45;&gt;metaflow_selectfiles -->
<g id="edge2" class="edge"><title>metaflow_infosource&#45;&gt;metaflow_selectfiles</title>
<path fill="none" stroke="black" d="M396.169,-908.876C370.191,-898.242 336.861,-884.598 310.565,-873.833"/>
<polygon fill="black" stroke="black" points="311.802,-870.558 301.221,-870.009 309.15,-877.036 311.802,-870.558"/>
</g>
<!-- metaflow_preproc_bbregister -->
<g id="node8" class="node"><title>metaflow_preproc_bbregister</title>
<ellipse fill="none" stroke="black" cx="438" cy="-564" rx="88.0886" ry="18"/>
<text text-anchor="middle" x="438" y="-560.3" font-family="Times,serif" font-size="14.00">bbregister (freesurfer)</text>
</g>
<!-- metaflow_infosource&#45;&gt;metaflow_preproc_bbregister -->
<g id="edge38" class="edge"><title>metaflow_infosource&#45;&gt;metaflow_preproc_bbregister</title>
<path fill="none" stroke="black" d="M438,-908.591C438,-881.368 438,-827.068 438,-781 438,-781 438,-781 438,-707 438,-666.996 438,-620.653 438,-592.08"/>
<polygon fill="black" stroke="black" points="441.5,-592.049 438,-582.049 434.5,-592.049 441.5,-592.049"/>
</g>
<!-- metaflow_preproc_fssource -->
<g id="node11" class="node"><title>metaflow_preproc_fssource</title>
<ellipse fill="none" stroke="black" cx="276" cy="-564" rx="55.3682" ry="18"/>
<text text-anchor="middle" x="276" y="-560.3" font-family="Times,serif" font-size="14.00">fssource (io)</text>
</g>
<!-- metaflow_infosource&#45;&gt;metaflow_preproc_fssource -->
<g id="edge39" class="edge"><title>metaflow_infosource&#45;&gt;metaflow_preproc_fssource</title>
<path fill="none" stroke="black" d="M421.458,-908.854C398.562,-883.236 360,-832.453 360,-781 360,-781 360,-781 360,-707 360,-660.074 325.599,-615.054 300.826,-588.719"/>
<polygon fill="black" stroke="black" points="303.287,-586.228 293.814,-581.482 298.26,-591.1 303.287,-586.228"/>
</g>
<!-- metaflow_l1analysis_conestimate -->
<g id="node18" class="node"><title>metaflow_l1analysis_conestimate</title>
<ellipse fill="none" stroke="black" cx="635" cy="-201" rx="76.5394" ry="18"/>
<text text-anchor="middle" x="635" y="-197.3" font-family="Times,serif" font-size="14.00">conestimate (spm)</text>
</g>
<!-- metaflow_infosource&#45;&gt;metaflow_l1analysis_conestimate -->
<g id="edge37" class="edge"><title>metaflow_infosource&#45;&gt;metaflow_l1analysis_conestimate</title>
<path fill="none" stroke="black" d="M497.269,-925.542C556.445,-922.702 648.24,-911.665 717,-873 765.001,-846.008 800,-836.07 800,-781 800,-781 800,-781 800,-491 800,-381.467 797.431,-340.526 729,-255 717.455,-240.57 700.85,-229.392 684.8,-221.101"/>
<polygon fill="black" stroke="black" points="685.979,-217.783 675.456,-216.551 682.914,-224.076 685.979,-217.783"/>
</g>
<!-- metaflow_l1analysis_modelspec -->
<g id="node15" class="node"><title>metaflow_l1analysis_modelspec</title>
<ellipse fill="none" stroke="black" cx="642" cy="-417" rx="91.9385" ry="18"/>
<text text-anchor="middle" x="642" y="-413.3" font-family="Times,serif" font-size="14.00">modelspec (modelgen)</text>
</g>
<!-- metaflow_getsubjectinfo&#45;&gt;metaflow_l1analysis_modelspec -->
<g id="edge36" class="edge"><title>metaflow_getsubjectinfo&#45;&gt;metaflow_l1analysis_modelspec</title>
<path fill="none" stroke="black" d="M652.889,-838.22C695.176,-815.913 762,-770.873 762,-709 762,-709 762,-709 762,-563 762,-509.682 713.248,-465.424 677.892,-440.338"/>
<polygon fill="black" stroke="black" points="679.452,-437.163 669.23,-434.379 675.485,-442.93 679.452,-437.163"/>
</g>
<!-- metaflow_preproc_despike -->
<g id="node5" class="node"><title>metaflow_preproc_despike</title>
<ellipse fill="none" stroke="black" cx="259" cy="-780" rx="59.1941" ry="18"/>
<text text-anchor="middle" x="259" y="-776.3" font-family="Times,serif" font-size="14.00">despike (afni)</text>
</g>
<!-- metaflow_selectfiles&#45;&gt;metaflow_preproc_despike -->
<g id="edge22" class="edge"><title>metaflow_selectfiles&#45;&gt;metaflow_preproc_despike</title>
<path fill="none" stroke="black" d="M265.104,-836.7C264.178,-828.245 263.04,-817.869 262,-808.373"/>
<polygon fill="black" stroke="black" points="265.451,-807.735 260.882,-798.176 258.493,-808.498 265.451,-807.735"/>
</g>
<!-- metaflow_datasink -->
<g id="node4" class="node"><title>metaflow_datasink</title>
<ellipse fill="none" stroke="black" cx="477" cy="-129" rx="55.3682" ry="18"/>
<text text-anchor="middle" x="477" y="-125.3" font-family="Times,serif" font-size="14.00">datasink (io)</text>
</g>
<!-- metaflow_preproc_sliceTiming -->
<g id="node6" class="node"><title>metaflow_preproc_sliceTiming</title>
<ellipse fill="none" stroke="black" cx="175" cy="-708" rx="76.5394" ry="18"/>
<text text-anchor="middle" x="175" y="-704.3" font-family="Times,serif" font-size="14.00">sliceTiming (spm)</text>
</g>
<!-- metaflow_preproc_despike&#45;&gt;metaflow_preproc_sliceTiming -->
<g id="edge3" class="edge"><title>metaflow_preproc_despike&#45;&gt;metaflow_preproc_sliceTiming</title>
<path fill="none" stroke="black" d="M239.518,-762.765C228.649,-753.708 214.925,-742.27 202.931,-732.276"/>
<polygon fill="black" stroke="black" points="204.883,-729.346 194.96,-725.633 200.402,-734.724 204.883,-729.346"/>
</g>
<!-- metaflow_preproc_realign -->
<g id="node7" class="node"><title>metaflow_preproc_realign</title>
<ellipse fill="none" stroke="black" cx="134" cy="-636" rx="58.2422" ry="18"/>
<text text-anchor="middle" x="134" y="-632.3" font-family="Times,serif" font-size="14.00">realign (spm)</text>
</g>
<!-- metaflow_preproc_sliceTiming&#45;&gt;metaflow_preproc_realign -->
<g id="edge4" class="edge"><title>metaflow_preproc_sliceTiming&#45;&gt;metaflow_preproc_realign</title>
<path fill="none" stroke="black" d="M165.075,-690.055C160.24,-681.801 154.325,-671.701 148.958,-662.538"/>
<polygon fill="black" stroke="black" points="151.908,-660.649 143.834,-653.789 145.868,-664.187 151.908,-660.649"/>
</g>
<!-- metaflow_preproc_realign&#45;&gt;metaflow_datasink -->
<g id="edge23" class="edge"><title>metaflow_preproc_realign&#45;&gt;metaflow_datasink</title>
<path fill="none" stroke="black" d="M102.281,-620.885C62.4866,-598.817 0,-552.447 0,-493 0,-493 0,-493 0,-272 0,-187.264 284.488,-148.341 414.118,-135.302"/>
<polygon fill="black" stroke="black" points="414.691,-138.763 424.3,-134.299 414.005,-131.796 414.691,-138.763"/>
</g>
<!-- metaflow_preproc_realign&#45;&gt;metaflow_datasink -->
<g id="edge24" class="edge"><title>metaflow_preproc_realign&#45;&gt;metaflow_datasink</title>
<path fill="none" stroke="black" d="M111.373,-619.194C77.4182,-596.503 18,-550.969 18,-493 18,-493 18,-493 18,-272 18,-189.311 288.913,-150.248 414.533,-136.292"/>
<polygon fill="black" stroke="black" points="415.213,-139.739 424.774,-135.175 414.453,-132.78 415.213,-139.739"/>
</g>
<!-- metaflow_preproc_realign&#45;&gt;metaflow_preproc_bbregister -->
<g id="edge5" class="edge"><title>metaflow_preproc_realign&#45;&gt;metaflow_preproc_bbregister</title>
<path fill="none" stroke="black" d="M179.184,-624.596C230.234,-612.841 313.788,-593.602 372.106,-580.173"/>
<polygon fill="black" stroke="black" points="373.004,-583.558 381.963,-577.903 371.433,-576.736 373.004,-583.558"/>
</g>
<!-- metaflow_preproc_tsnr -->
<g id="node9" class="node"><title>metaflow_preproc_tsnr</title>
<ellipse fill="none" stroke="black" cx="134" cy="-564" rx="49.0941" ry="18"/>
<text text-anchor="middle" x="134" y="-560.3" font-family="Times,serif" font-size="14.00">tsnr (misc)</text>
</g>
<!-- metaflow_preproc_realign&#45;&gt;metaflow_preproc_tsnr -->
<g id="edge7" class="edge"><title>metaflow_preproc_realign&#45;&gt;metaflow_preproc_tsnr</title>
<path fill="none" stroke="black" d="M134,-617.697C134,-609.983 134,-600.712 134,-592.112"/>
<polygon fill="black" stroke="black" points="137.5,-592.104 134,-582.104 130.5,-592.104 137.5,-592.104"/>
</g>
<!-- metaflow_preproc_art -->
<g id="node10" class="node"><title>metaflow_preproc_art</title>
<ellipse fill="none" stroke="black" cx="102" cy="-492" rx="55.3436" ry="18"/>
<text text-anchor="middle" x="102" y="-488.3" font-family="Times,serif" font-size="14.00">art (rapidart)</text>
</g>
<!-- metaflow_preproc_realign&#45;&gt;metaflow_preproc_art -->
<g id="edge8" class="edge"><title>metaflow_preproc_realign&#45;&gt;metaflow_preproc_art</title>
<path fill="none" stroke="black" d="M102.732,-620.698C88.7699,-611.433 74.0979,-598.101 67,-582 57.7369,-560.987 66.8713,-535.756 78.333,-517.533"/>
<polygon fill="black" stroke="black" points="81.2835,-519.42 84.0762,-509.2 75.5197,-515.448 81.2835,-519.42"/>
</g>
<!-- metaflow_preproc_realign&#45;&gt;metaflow_preproc_art -->
<g id="edge9" class="edge"><title>metaflow_preproc_realign&#45;&gt;metaflow_preproc_art</title>
<path fill="none" stroke="black" d="M115.948,-618.7C104.759,-609.559 91.6027,-596.978 85,-582 76.0697,-561.742 84.2387,-537.564 92.3165,-519.524"/>
<polygon fill="black" stroke="black" points="95.6129,-520.738 96.6855,-510.197 89.2739,-517.768 95.6129,-520.738"/>
</g>
<!-- metaflow_preproc_applyVolTrans -->
<g id="node12" class="node"><title>metaflow_preproc_applyVolTrans</title>
<ellipse fill="none" stroke="black" cx="420" cy="-492" rx="105.411" ry="18"/>
<text text-anchor="middle" x="420" y="-488.3" font-family="Times,serif" font-size="14.00">applyVolTrans (freesurfer)</text>
</g>
<!-- metaflow_preproc_realign&#45;&gt;metaflow_preproc_applyVolTrans -->
<g id="edge6" class="edge"><title>metaflow_preproc_realign&#45;&gt;metaflow_preproc_applyVolTrans</title>
<path fill="none" stroke="black" d="M154.605,-619.004C166.448,-609.156 181.09,-595.806 192,-582 203.348,-567.639 197.502,-557.173 212,-546 231.882,-530.677 288.441,-516.804 337.568,-507.098"/>
<polygon fill="black" stroke="black" points="338.451,-510.492 347.602,-505.152 337.118,-503.62 338.451,-510.492"/>
</g>
<!-- metaflow_preproc_realign&#45;&gt;metaflow_l1analysis_modelspec -->
<g id="edge31" class="edge"><title>metaflow_preproc_realign&#45;&gt;metaflow_l1analysis_modelspec</title>
<path fill="none" stroke="black" d="M191.003,-632.107C286.955,-626.474 476.041,-611.878 535,-582 589.979,-554.139 620.751,-483.487 634.029,-444.626"/>
<polygon fill="black" stroke="black" points="637.387,-445.616 637.174,-435.023 630.735,-443.437 637.387,-445.616"/>
</g>
<!-- metaflow_preproc_bbregister&#45;&gt;metaflow_datasink -->
<g id="edge28" class="edge"><title>metaflow_preproc_bbregister&#45;&gt;metaflow_datasink</title>
<path fill="none" stroke="black" d="M471.905,-547.168C488.206,-538.995 505.936,-527.051 516,-510 524.132,-496.221 517.838,-489.894 516,-474 509.289,-415.956 486,-404.431 486,-346 486,-346 486,-346 486,-272 486,-231.502 475.27,-185.632 471.848,-157.258"/>
<polygon fill="black" stroke="black" points="475.332,-156.925 470.932,-147.287 468.362,-157.566 475.332,-156.925"/>
</g>
<!-- metaflow_preproc_bbregister&#45;&gt;metaflow_datasink -->
<g id="edge29" class="edge"><title>metaflow_preproc_bbregister&#45;&gt;metaflow_datasink</title>
<path fill="none" stroke="black" d="M485.169,-548.767C503.784,-540.58 523.259,-528.199 534,-510 542.132,-496.221 535.838,-489.894 534,-474 527.289,-415.956 504,-404.431 504,-346 504,-346 504,-346 504,-272 504,-231.502 493.27,-185.632 485.338,-157.258"/>
<polygon fill="black" stroke="black" points="488.597,-155.926 482.464,-147.287 481.871,-157.865 488.597,-155.926"/>
</g>
<!-- metaflow_preproc_bbregister&#45;&gt;metaflow_datasink -->
<g id="edge30" class="edge"><title>metaflow_preproc_bbregister&#45;&gt;metaflow_datasink</title>
<path fill="none" stroke="black" d="M497.081,-550.575C518.75,-542.442 540.437,-529.593 552,-510 560.132,-496.221 553.838,-489.894 552,-474 545.289,-415.956 522,-404.431 522,-346 522,-346 522,-346 522,-272 522,-230.696 510.839,-183.805 498.084,-155.585"/>
<polygon fill="black" stroke="black" points="501.112,-153.814 493.522,-146.422 494.846,-156.934 501.112,-153.814"/>
</g>
<!-- metaflow_preproc_bbregister&#45;&gt;metaflow_preproc_applyVolTrans -->
<g id="edge10" class="edge"><title>metaflow_preproc_bbregister&#45;&gt;metaflow_preproc_applyVolTrans</title>
<path fill="none" stroke="black" d="M433.551,-545.697C431.545,-537.898 429.131,-528.509 426.899,-519.829"/>
<polygon fill="black" stroke="black" points="430.278,-518.918 424.398,-510.104 423.499,-520.661 430.278,-518.918"/>
</g>
<!-- metaflow_l1analysis_applyVolReg -->
<g id="node19" class="node"><title>metaflow_l1analysis_applyVolReg</title>
<ellipse fill="none" stroke="black" cx="650" cy="-129" rx="100.137" ry="18"/>
<text text-anchor="middle" x="650" y="-125.3" font-family="Times,serif" font-size="14.00">applyVolReg (freesurfer)</text>
</g>
<!-- metaflow_preproc_bbregister&#45;&gt;metaflow_l1analysis_applyVolReg -->
<g id="edge35" class="edge"><title>metaflow_preproc_bbregister&#45;&gt;metaflow_l1analysis_applyVolReg</title>
<path fill="none" stroke="black" d="M525.553,-561.548C596.9,-555.16 693.636,-533.5 743,-466 817.492,-364.14 783.091,-292.289 720,-183 712.825,-170.571 701.46,-160.116 689.957,-151.863"/>
<polygon fill="black" stroke="black" points="691.864,-148.928 681.614,-146.247 687.955,-154.735 691.864,-148.928"/>
</g>
<!-- metaflow_preproc_tsnr&#45;&gt;metaflow_preproc_art -->
<g id="edge11" class="edge"><title>metaflow_preproc_tsnr&#45;&gt;metaflow_preproc_art</title>
<path fill="none" stroke="black" d="M126.254,-546.055C122.613,-538.091 118.188,-528.411 114.119,-519.51"/>
<polygon fill="black" stroke="black" points="117.238,-517.915 109.897,-510.275 110.872,-520.825 117.238,-517.915"/>
</g>
<!-- metaflow_preproc_smooth -->
<g id="node14" class="node"><title>metaflow_preproc_smooth</title>
<ellipse fill="none" stroke="black" cx="236" cy="-492" rx="60.1672" ry="18"/>
<text text-anchor="middle" x="236" y="-488.3" font-family="Times,serif" font-size="14.00">smooth (spm)</text>
</g>
<!-- metaflow_preproc_tsnr&#45;&gt;metaflow_preproc_smooth -->
<g id="edge12" class="edge"><title>metaflow_preproc_tsnr&#45;&gt;metaflow_preproc_smooth</title>
<path fill="none" stroke="black" d="M156.132,-547.811C170.271,-538.108 188.824,-525.376 204.489,-514.625"/>
<polygon fill="black" stroke="black" points="206.584,-517.432 212.849,-508.888 202.623,-511.661 206.584,-517.432"/>
</g>
<!-- metaflow_preproc_art&#45;&gt;metaflow_datasink -->
<g id="edge25" class="edge"><title>metaflow_preproc_art&#45;&gt;metaflow_datasink</title>
<path fill="none" stroke="black" d="M131.969,-476.681C175.371,-455.599 250,-411.487 250,-346 250,-346 250,-346 250,-272 250,-193.163 351.337,-155.82 418.68,-140.036"/>
<polygon fill="black" stroke="black" points="419.774,-143.378 428.764,-137.773 418.241,-136.548 419.774,-143.378"/>
</g>
<!-- metaflow_preproc_art&#45;&gt;metaflow_datasink -->
<g id="edge26" class="edge"><title>metaflow_preproc_art&#45;&gt;metaflow_datasink</title>
<path fill="none" stroke="black" d="M139.537,-478.584C188.647,-458.327 268,-413.528 268,-346 268,-346 268,-346 268,-272 268,-196.696 360.458,-159.25 422.463,-142.29"/>
<polygon fill="black" stroke="black" points="423.734,-145.574 432.514,-139.645 421.952,-138.805 423.734,-145.574"/>
</g>
<!-- metaflow_preproc_art&#45;&gt;metaflow_l1analysis_modelspec -->
<g id="edge33" class="edge"><title>metaflow_preproc_art&#45;&gt;metaflow_l1analysis_modelspec</title>
<path fill="none" stroke="black" d="M141.23,-479.163C149.658,-477.065 158.567,-475.177 167,-474 248.672,-462.6 457.652,-484.558 538,-466 561.752,-460.514 586.604,-449.276 606.056,-439.052"/>
<polygon fill="black" stroke="black" points="607.727,-442.127 614.865,-434.298 604.403,-435.967 607.727,-442.127"/>
</g>
<!-- metaflow_preproc_fssource&#45;&gt;metaflow_preproc_applyVolTrans -->
<g id="edge13" class="edge"><title>metaflow_preproc_fssource&#45;&gt;metaflow_preproc_applyVolTrans</title>
<path fill="none" stroke="black" d="M305.488,-548.666C326.244,-538.576 354.343,-524.917 377.511,-513.654"/>
<polygon fill="black" stroke="black" points="379.311,-516.671 386.775,-509.151 376.251,-510.375 379.311,-516.671"/>
</g>
<!-- metaflow_preproc_binarize -->
<g id="node13" class="node"><title>metaflow_preproc_binarize</title>
<ellipse fill="none" stroke="black" cx="377" cy="-417" rx="81.3646" ry="18"/>
<text text-anchor="middle" x="377" y="-413.3" font-family="Times,serif" font-size="14.00">binarize (freesurfer)</text>
</g>
<!-- metaflow_preproc_applyVolTrans&#45;&gt;metaflow_preproc_binarize -->
<g id="edge14" class="edge"><title>metaflow_preproc_applyVolTrans&#45;&gt;metaflow_preproc_binarize</title>
<path fill="none" stroke="black" d="M410.027,-474.069C404.746,-465.104 398.148,-453.903 392.241,-443.875"/>
<polygon fill="black" stroke="black" points="395.159,-441.932 387.068,-435.092 389.128,-445.485 395.159,-441.932"/>
</g>
<!-- metaflow_preproc_binarize&#45;&gt;metaflow_datasink -->
<g id="edge27" class="edge"><title>metaflow_preproc_binarize&#45;&gt;metaflow_datasink</title>
<path fill="none" stroke="black" d="M382.956,-398.966C399.735,-350.979 447.484,-214.414 467.737,-156.491"/>
<polygon fill="black" stroke="black" points="471.078,-157.54 471.075,-146.945 464.471,-155.229 471.078,-157.54"/>
</g>
<!-- metaflow_l1analysis_level1design -->
<g id="node16" class="node"><title>metaflow_l1analysis_level1design</title>
<ellipse fill="none" stroke="black" cx="635" cy="-345" rx="78.4642" ry="18"/>
<text text-anchor="middle" x="635" y="-341.3" font-family="Times,serif" font-size="14.00">level1design (spm)</text>
</g>
<!-- metaflow_preproc_binarize&#45;&gt;metaflow_l1analysis_level1design -->
<g id="edge34" class="edge"><title>metaflow_preproc_binarize&#45;&gt;metaflow_l1analysis_level1design</title>
<path fill="none" stroke="black" d="M426.135,-402.669C469.041,-391.028 531.38,-374.114 576.78,-361.796"/>
<polygon fill="black" stroke="black" points="577.751,-365.159 586.485,-359.163 575.918,-358.404 577.751,-365.159"/>
</g>
<!-- metaflow_preproc_smooth&#45;&gt;metaflow_l1analysis_modelspec -->
<g id="edge32" class="edge"><title>metaflow_preproc_smooth&#45;&gt;metaflow_l1analysis_modelspec</title>
<path fill="none" stroke="black" d="M278.428,-479.085C287.153,-477.049 296.324,-475.204 305,-474 356.316,-466.876 487.596,-477.981 538,-466 561.443,-460.428 585.994,-449.377 605.351,-439.282"/>
<polygon fill="black" stroke="black" points="607.246,-442.237 614.409,-434.431 603.941,-436.066 607.246,-442.237"/>
</g>
<!-- metaflow_l1analysis_modelspec&#45;&gt;metaflow_l1analysis_level1design -->
<g id="edge15" class="edge"><title>metaflow_l1analysis_modelspec&#45;&gt;metaflow_l1analysis_level1design</title>
<path fill="none" stroke="black" d="M640.27,-398.697C639.498,-390.983 638.571,-381.712 637.711,-373.112"/>
<polygon fill="black" stroke="black" points="641.188,-372.706 636.71,-363.104 634.223,-373.403 641.188,-372.706"/>
</g>
<!-- metaflow_l1analysis_level1estimate -->
<g id="node17" class="node"><title>metaflow_l1analysis_level1estimate</title>
<ellipse fill="none" stroke="black" cx="635" cy="-273" rx="85.2138" ry="18"/>
<text text-anchor="middle" x="635" y="-269.3" font-family="Times,serif" font-size="14.00">level1estimate (spm)</text>
</g>
<!-- metaflow_l1analysis_level1design&#45;&gt;metaflow_l1analysis_level1estimate -->
<g id="edge16" class="edge"><title>metaflow_l1analysis_level1design&#45;&gt;metaflow_l1analysis_level1estimate</title>
<path fill="none" stroke="black" d="M635,-326.697C635,-318.983 635,-309.712 635,-301.112"/>
<polygon fill="black" stroke="black" points="638.5,-301.104 635,-291.104 631.5,-301.104 638.5,-301.104"/>
</g>
<!-- metaflow_l1analysis_level1estimate&#45;&gt;metaflow_l1analysis_conestimate -->
<g id="edge17" class="edge"><title>metaflow_l1analysis_level1estimate&#45;&gt;metaflow_l1analysis_conestimate</title>
<path fill="none" stroke="black" d="M623.244,-255.055C621.565,-247.145 621.098,-237.54 621.844,-228.688"/>
<polygon fill="black" stroke="black" points="625.308,-229.187 623.277,-218.789 618.381,-228.185 625.308,-229.187"/>
</g>
<!-- metaflow_l1analysis_level1estimate&#45;&gt;metaflow_l1analysis_conestimate -->
<g id="edge18" class="edge"><title>metaflow_l1analysis_level1estimate&#45;&gt;metaflow_l1analysis_conestimate</title>
<path fill="none" stroke="black" d="M635,-254.697C635,-246.983 635,-237.712 635,-229.112"/>
<polygon fill="black" stroke="black" points="638.5,-229.104 635,-219.104 631.5,-229.104 638.5,-229.104"/>
</g>
<!-- metaflow_l1analysis_level1estimate&#45;&gt;metaflow_l1analysis_conestimate -->
<g id="edge19" class="edge"><title>metaflow_l1analysis_level1estimate&#45;&gt;metaflow_l1analysis_conestimate</title>
<path fill="none" stroke="black" d="M646.756,-255.055C648.435,-247.145 648.902,-237.54 648.156,-228.688"/>
<polygon fill="black" stroke="black" points="651.619,-228.185 646.723,-218.789 644.692,-229.187 651.619,-228.185"/>
</g>
<!-- metaflow_l1analysis_conestimate&#45;&gt;metaflow_datasink -->
<g id="edge41" class="edge"><title>metaflow_l1analysis_conestimate&#45;&gt;metaflow_datasink</title>
<path fill="none" stroke="black" d="M592.353,-186.003C566.21,-175.647 533.632,-161.399 509.532,-149.867"/>
<polygon fill="black" stroke="black" points="510.942,-146.66 500.419,-145.433 507.88,-152.955 510.942,-146.66"/>
</g>
<!-- metaflow_l1analysis_conestimate&#45;&gt;metaflow_datasink -->
<g id="edge42" class="edge"><title>metaflow_l1analysis_conestimate&#45;&gt;metaflow_datasink</title>
<path fill="none" stroke="black" d="M600.716,-184.811C576.331,-174.008 543.471,-159.449 517.745,-148.052"/>
<polygon fill="black" stroke="black" points="518.828,-144.703 508.267,-143.853 515.992,-151.103 518.828,-144.703"/>
</g>
<!-- metaflow_l1analysis_conestimate&#45;&gt;metaflow_datasink -->
<g id="edge43" class="edge"><title>metaflow_l1analysis_conestimate&#45;&gt;metaflow_datasink</title>
<path fill="none" stroke="black" d="M610.313,-183.941C587.128,-172.517 552.635,-157.242 524.322,-145.863"/>
<polygon fill="black" stroke="black" points="525.568,-142.592 514.982,-142.165 522.991,-149.101 525.568,-142.592"/>
</g>
<!-- metaflow_l1analysis_conestimate&#45;&gt;metaflow_l1analysis_applyVolReg -->
<g id="edge20" class="edge"><title>metaflow_l1analysis_conestimate&#45;&gt;metaflow_l1analysis_applyVolReg</title>
<path fill="none" stroke="black" d="M638.708,-182.697C640.361,-174.983 642.347,-165.712 644.19,-157.112"/>
<polygon fill="black" stroke="black" points="647.662,-157.616 646.335,-147.104 640.817,-156.149 647.662,-157.616"/>
</g>
<!-- metaflow_l1analysis_mriconvert -->
<g id="node20" class="node"><title>metaflow_l1analysis_mriconvert</title>
<ellipse fill="none" stroke="black" cx="646" cy="-57" rx="91.9385" ry="18"/>
<text text-anchor="middle" x="646" y="-53.3" font-family="Times,serif" font-size="14.00">mriconvert (freesurfer)</text>
</g>
<!-- metaflow_l1analysis_applyVolReg&#45;&gt;metaflow_l1analysis_mriconvert -->
<g id="edge21" class="edge"><title>metaflow_l1analysis_applyVolReg&#45;&gt;metaflow_l1analysis_mriconvert</title>
<path fill="none" stroke="black" d="M649.011,-110.697C648.57,-102.983 648.041,-93.7125 647.549,-85.1124"/>
<polygon fill="black" stroke="black" points="651.042,-84.8883 646.977,-75.1043 644.054,-85.2878 651.042,-84.8883"/>
</g>
<!-- metaflow_l1analysis_mriconvert&#45;&gt;metaflow_datasink -->
<g id="edge40" class="edge"><title>metaflow_l1analysis_mriconvert&#45;&gt;metaflow_datasink</title>
<path fill="none" stroke="black" d="M608.384,-73.5808C581.994,-84.5113 546.679,-99.1389 519.308,-110.476"/>
<polygon fill="black" stroke="black" points="517.886,-107.277 509.986,-114.337 520.564,-113.744 517.886,-107.277"/>
</g>
</g>
</svg>
