<?xml version="1.0" encoding="UTF-8" standalone="no"?>
<!DOCTYPE svg PUBLIC "-//W3C//DTD SVG 1.1//EN"
 "http://www.w3.org/Graphics/SVG/1.1/DTD/svg11.dtd">
<!-- Generated by graphviz version 2.36.0 (20140111.2315)
 -->
<!-- Title: %3 Pages: 1 -->
<svg width="890pt" height="980pt"
 viewBox="0.00 0.00 890.00 980.00" xmlns="http://www.w3.org/2000/svg" xmlns:xlink="http://www.w3.org/1999/xlink">
<g id="graph0" class="graph" transform="scale(1 1) rotate(0) translate(4 976)">
<title>%3</title>
<polygon fill="white" stroke="none" points="-4,4 -4,-976 886,-976 886,4 -4,4"/>
<!-- preproc (bbregister (freesurfer) -->
<g id="node1" class="node"><title>preproc (bbregister (freesurfer)</title>
<ellipse fill="none" stroke="black" cx="204" cy="-594" rx="120.359" ry="18"/>
<text text-anchor="middle" x="204" y="-590.3" font-family="Times,serif" font-size="14.00">preproc (bbregister (freesurfer)</text>
</g>
<!-- datasink (io) -->
<g id="node2" class="node"><title>datasink (io)</title>
<ellipse fill="none" stroke="black" cx="384" cy="-18" rx="55.3682" ry="18"/>
<text text-anchor="middle" x="384" y="-14.3" font-family="Times,serif" font-size="14.00">datasink (io)</text>
</g>
<!-- preproc (bbregister (freesurfer)&#45;&gt;datasink (io) -->
<g id="edge1" class="edge"><title>preproc (bbregister (freesurfer)&#45;&gt;datasink (io)</title>
<path fill="none" stroke="black" d="M117.716,-581.408C88.515,-573.759 57.6113,-561.065 35,-540 3.90021,-511.027 0,-493.504 0,-451 0,-451 0,-451 0,-161 0,-90.2439 66.8366,-99.5708 132,-72 193.567,-45.9508 269.188,-32.25 321.44,-25.3596"/>
<polygon fill="black" stroke="black" points="322.089,-28.8053 331.567,-24.0707 321.205,-21.8613 322.089,-28.8053"/>
</g>
<!-- l1analysis (applyVolReg (freesurfer) -->
<g id="node3" class="node"><title>l1analysis (applyVolReg (freesurfer)</title>
<ellipse fill="none" stroke="black" cx="299" cy="-162" rx="140.082" ry="18"/>
<text text-anchor="middle" x="299" y="-158.3" font-family="Times,serif" font-size="14.00">l1analysis (applyVolReg (freesurfer)</text>
</g>
<!-- preproc (bbregister (freesurfer)&#45;&gt;l1analysis (applyVolReg (freesurfer) -->
<g id="edge2" class="edge"><title>preproc (bbregister (freesurfer)&#45;&gt;l1analysis (applyVolReg (freesurfer)</title>
<path fill="none" stroke="black" d="M125.493,-580.363C100.383,-572.619 74.5706,-560.133 57,-540 30.4048,-509.526 38,-491.447 38,-451 38,-451 38,-451 38,-305 38,-230.114 121.932,-194.496 194.603,-177.692"/>
<polygon fill="black" stroke="black" points="195.764,-181.02 204.773,-175.444 194.253,-174.185 195.764,-181.02"/>
</g>
<!-- preproc (applyVolTrans (freesurfer) -->
<g id="node4" class="node"><title>preproc (applyVolTrans (freesurfer)</title>
<ellipse fill="none" stroke="black" cx="204" cy="-522" rx="137.183" ry="18"/>
<text text-anchor="middle" x="204" y="-518.3" font-family="Times,serif" font-size="14.00">preproc (applyVolTrans (freesurfer)</text>
</g>
<!-- preproc (bbregister (freesurfer)&#45;&gt;preproc (applyVolTrans (freesurfer) -->
<g id="edge3" class="edge"><title>preproc (bbregister (freesurfer)&#45;&gt;preproc (applyVolTrans (freesurfer)</title>
<path fill="none" stroke="black" d="M204,-575.697C204,-567.983 204,-558.712 204,-550.112"/>
<polygon fill="black" stroke="black" points="207.5,-550.104 204,-540.104 200.5,-550.104 207.5,-550.104"/>
</g>
<!-- l1analysis (mriconvert (freesurfer) -->
<g id="node20" class="node"><title>l1analysis (mriconvert (freesurfer)</title>
<ellipse fill="none" stroke="black" cx="302" cy="-90" rx="132.382" ry="18"/>
<text text-anchor="middle" x="302" y="-86.3" font-family="Times,serif" font-size="14.00">l1analysis (mriconvert (freesurfer)</text>
</g>
<!-- l1analysis (applyVolReg (freesurfer)&#45;&gt;l1analysis (mriconvert (freesurfer) -->
<g id="edge31" class="edge"><title>l1analysis (applyVolReg (freesurfer)&#45;&gt;l1analysis (mriconvert (freesurfer)</title>
<path fill="none" stroke="black" d="M299.742,-143.697C300.072,-135.983 300.469,-126.712 300.838,-118.112"/>
<polygon fill="black" stroke="black" points="304.335,-118.245 301.267,-108.104 297.342,-117.945 304.335,-118.245"/>
</g>
<!-- preproc (binarize (freesurfer) -->
<g id="node15" class="node"><title>preproc (binarize (freesurfer)</title>
<ellipse fill="none" stroke="black" cx="204" cy="-450" rx="113.61" ry="18"/>
<text text-anchor="middle" x="204" y="-446.3" font-family="Times,serif" font-size="14.00">preproc (binarize (freesurfer)</text>
</g>
<!-- preproc (applyVolTrans (freesurfer)&#45;&gt;preproc (binarize (freesurfer) -->
<g id="edge34" class="edge"><title>preproc (applyVolTrans (freesurfer)&#45;&gt;preproc (binarize (freesurfer)</title>
<path fill="none" stroke="black" d="M204,-503.697C204,-495.983 204,-486.712 204,-478.112"/>
<polygon fill="black" stroke="black" points="207.5,-478.104 204,-468.104 200.5,-478.104 207.5,-478.104"/>
</g>
<!-- preproc (fssource (io) -->
<g id="node5" class="node"><title>preproc (fssource (io)</title>
<ellipse fill="none" stroke="black" cx="352" cy="-810" rx="87.1385" ry="18"/>
<text text-anchor="middle" x="352" y="-806.3" font-family="Times,serif" font-size="14.00">preproc (fssource (io)</text>
</g>
<!-- preproc (fssource (io)&#45;&gt;preproc (applyVolTrans (freesurfer) -->
<g id="edge4" class="edge"><title>preproc (fssource (io)&#45;&gt;preproc (applyVolTrans (freesurfer)</title>
<path fill="none" stroke="black" d="M356.145,-791.728C365.078,-750.052 381.617,-642.516 333,-576 321.381,-560.103 304.126,-548.958 285.988,-541.149"/>
<polygon fill="black" stroke="black" points="287.034,-537.799 276.448,-537.362 284.451,-544.305 287.034,-537.799"/>
</g>
<!-- selectfiles (io) -->
<g id="node6" class="node"><title>selectfiles (io)</title>
<ellipse fill="none" stroke="black" cx="549" cy="-882" rx="61.1419" ry="18"/>
<text text-anchor="middle" x="549" y="-878.3" font-family="Times,serif" font-size="14.00">selectfiles (io)</text>
</g>
<!-- preproc (despike (afni) -->
<g id="node7" class="node"><title>preproc (despike (afni)</title>
<ellipse fill="none" stroke="black" cx="549" cy="-810" rx="91.4625" ry="18"/>
<text text-anchor="middle" x="549" y="-806.3" font-family="Times,serif" font-size="14.00">preproc (despike (afni)</text>
</g>
<!-- selectfiles (io)&#45;&gt;preproc (despike (afni) -->
<g id="edge5" class="edge"><title>selectfiles (io)&#45;&gt;preproc (despike (afni)</title>
<path fill="none" stroke="black" d="M549,-863.697C549,-855.983 549,-846.712 549,-838.112"/>
<polygon fill="black" stroke="black" points="552.5,-838.104 549,-828.104 545.5,-838.104 552.5,-838.104"/>
</g>
<!-- preproc (sliceTiming (spm) -->
<g id="node14" class="node"><title>preproc (sliceTiming (spm)</title>
<ellipse fill="none" stroke="black" cx="548" cy="-738" rx="108.31" ry="18"/>
<text text-anchor="middle" x="548" y="-734.3" font-family="Times,serif" font-size="14.00">preproc (sliceTiming (spm)</text>
</g>
<!-- preproc (despike (afni)&#45;&gt;preproc (sliceTiming (spm) -->
<g id="edge14" class="edge"><title>preproc (despike (afni)&#45;&gt;preproc (sliceTiming (spm)</title>
<path fill="none" stroke="black" d="M548.753,-791.697C548.643,-783.983 548.51,-774.712 548.387,-766.112"/>
<polygon fill="black" stroke="black" points="551.887,-766.053 548.244,-756.104 544.888,-766.153 551.887,-766.053"/>
</g>
<!-- infosource (utility) -->
<g id="node8" class="node"><title>infosource (utility)</title>
<ellipse fill="none" stroke="black" cx="549" cy="-954" rx="77.0154" ry="18"/>
<text text-anchor="middle" x="549" y="-950.3" font-family="Times,serif" font-size="14.00">infosource (utility)</text>
</g>
<!-- infosource (utility)&#45;&gt;preproc (bbregister (freesurfer) -->
<g id="edge6" class="edge"><title>infosource (utility)&#45;&gt;preproc (bbregister (freesurfer)</title>
<path fill="none" stroke="black" d="M472.099,-952.012C375.152,-946.225 221,-919.901 221,-811 221,-811 221,-811 221,-737 221,-696.931 214.244,-650.949 209.25,-622.433"/>
<polygon fill="black" stroke="black" points="212.661,-621.627 207.44,-612.408 205.773,-622.871 212.661,-621.627"/>
</g>
<!-- infosource (utility)&#45;&gt;preproc (fssource (io) -->
<g id="edge7" class="edge"><title>infosource (utility)&#45;&gt;preproc (fssource (io)</title>
<path fill="none" stroke="black" d="M526.402,-936.711C491.187,-911.328 423.132,-862.273 383.243,-833.52"/>
<polygon fill="black" stroke="black" points="385.1,-830.545 374.942,-827.537 381.007,-836.223 385.1,-830.545"/>
</g>
<!-- infosource (utility)&#45;&gt;selectfiles (io) -->
<g id="edge8" class="edge"><title>infosource (utility)&#45;&gt;selectfiles (io)</title>
<path fill="none" stroke="black" d="M549,-935.697C549,-927.983 549,-918.712 549,-910.112"/>
<polygon fill="black" stroke="black" points="552.5,-910.104 549,-900.104 545.5,-910.104 552.5,-910.104"/>
</g>
<!-- l1analysis (conestimate (spm) -->
<g id="node9" class="node"><title>l1analysis (conestimate (spm)</title>
<ellipse fill="none" stroke="black" cx="617" cy="-234" rx="116.484" ry="18"/>
<text text-anchor="middle" x="617" y="-230.3" font-family="Times,serif" font-size="14.00">l1analysis (conestimate (spm)</text>
</g>
<!-- infosource (utility)&#45;&gt;l1analysis (conestimate (spm) -->
<g id="edge9" class="edge"><title>infosource (utility)&#45;&gt;l1analysis (conestimate (spm)</title>
<path fill="none" stroke="black" d="M626.234,-952.472C724.605,-947.252 882,-921.615 882,-811 882,-811 882,-811 882,-377 882,-298.824 791.292,-263.517 716.015,-247.677"/>
<polygon fill="black" stroke="black" points="716.472,-244.199 705.978,-245.659 715.092,-251.062 716.472,-244.199"/>
</g>
<!-- getsubjectinfo (utility) -->
<g id="node10" class="node"><title>getsubjectinfo (utility)</title>
<ellipse fill="none" stroke="black" cx="764" cy="-738" rx="89.5377" ry="18"/>
<text text-anchor="middle" x="764" y="-734.3" font-family="Times,serif" font-size="14.00">getsubjectinfo (utility)</text>
</g>
<!-- infosource (utility)&#45;&gt;getsubjectinfo (utility) -->
<g id="edge10" class="edge"><title>infosource (utility)&#45;&gt;getsubjectinfo (utility)</title>
<path fill="none" stroke="black" d="M572.896,-936.631C586.855,-926.654 604.517,-913.3 619,-900 667.323,-855.623 717.106,-796.982 743.93,-764.112"/>
<polygon fill="black" stroke="black" points="746.972,-765.918 750.553,-755.946 741.535,-761.508 746.972,-765.918"/>
</g>
<!-- l1analysis (conestimate (spm)&#45;&gt;datasink (io) -->
<g id="edge27" class="edge"><title>l1analysis (conestimate (spm)&#45;&gt;datasink (io)</title>
<path fill="none" stroke="black" d="M605.619,-215.681C584.194,-184.067 535.133,-116.199 481,-72 464.165,-58.254 443.24,-46.2971 425.139,-37.2369"/>
<polygon fill="black" stroke="black" points="426.491,-34.002 415.968,-32.7688 423.425,-40.295 426.491,-34.002"/>
</g>
<!-- l1analysis (conestimate (spm)&#45;&gt;l1analysis (applyVolReg (freesurfer) -->
<g id="edge28" class="edge"><title>l1analysis (conestimate (spm)&#45;&gt;l1analysis (applyVolReg (freesurfer)</title>
<path fill="none" stroke="black" d="M553.03,-218.919C502.064,-207.7 430.521,-191.951 376.34,-180.025"/>
<polygon fill="black" stroke="black" points="376.953,-176.576 366.435,-177.844 375.448,-183.412 376.953,-176.576"/>
</g>
<!-- l1analysis (modelspec (modelgen) -->
<g id="node12" class="node"><title>l1analysis (modelspec (modelgen)</title>
<ellipse fill="none" stroke="black" cx="647" cy="-450" rx="132.382" ry="18"/>
<text text-anchor="middle" x="647" y="-446.3" font-family="Times,serif" font-size="14.00">l1analysis (modelspec (modelgen)</text>
</g>
<!-- getsubjectinfo (utility)&#45;&gt;l1analysis (modelspec (modelgen) -->
<g id="edge30" class="edge"><title>getsubjectinfo (utility)&#45;&gt;l1analysis (modelspec (modelgen)</title>
<path fill="none" stroke="black" d="M769.944,-719.736C782.975,-678.534 809.502,-572.772 765,-504 754.963,-488.489 739.192,-477.474 722.408,-469.667"/>
<polygon fill="black" stroke="black" points="723.58,-466.362 713.009,-465.652 720.83,-472.799 723.58,-466.362"/>
</g>
<!-- preproc (art (rapidart) -->
<g id="node11" class="node"><title>preproc (art (rapidart)</title>
<ellipse fill="none" stroke="black" cx="448" cy="-522" rx="87.613" ry="18"/>
<text text-anchor="middle" x="448" y="-518.3" font-family="Times,serif" font-size="14.00">preproc (art (rapidart)</text>
</g>
<!-- preproc (art (rapidart)&#45;&gt;datasink (io) -->
<g id="edge11" class="edge"><title>preproc (art (rapidart)&#45;&gt;datasink (io)</title>
<path fill="none" stroke="black" d="M451.845,-503.612C457.397,-476.942 467,-424.268 467,-379 467,-379 467,-379 467,-161 467,-120.031 464.454,-106.902 443,-72 435.774,-60.2452 425.165,-49.5719 414.928,-40.9346"/>
<polygon fill="black" stroke="black" points="416.858,-37.9957 406.87,-34.4624 412.475,-43.4533 416.858,-37.9957"/>
</g>
<!-- preproc (art (rapidart)&#45;&gt;l1analysis (modelspec (modelgen) -->
<g id="edge12" class="edge"><title>preproc (art (rapidart)&#45;&gt;l1analysis (modelspec (modelgen)</title>
<path fill="none" stroke="black" d="M490.203,-506.155C519.877,-495.717 559.866,-481.65 592.031,-470.336"/>
<polygon fill="black" stroke="black" points="593.471,-473.54 601.743,-466.92 591.148,-466.936 593.471,-473.54"/>
</g>
<!-- l1analysis (level1design (spm) -->
<g id="node16" class="node"><title>l1analysis (level1design (spm)</title>
<ellipse fill="none" stroke="black" cx="621" cy="-378" rx="118.409" ry="18"/>
<text text-anchor="middle" x="621" y="-374.3" font-family="Times,serif" font-size="14.00">l1analysis (level1design (spm)</text>
</g>
<!-- l1analysis (modelspec (modelgen)&#45;&gt;l1analysis (level1design (spm) -->
<g id="edge33" class="edge"><title>l1analysis (modelspec (modelgen)&#45;&gt;l1analysis (level1design (spm)</title>
<path fill="none" stroke="black" d="M640.573,-431.697C637.645,-423.813 634.113,-414.304 630.86,-405.546"/>
<polygon fill="black" stroke="black" points="634.116,-404.26 627.353,-396.104 627.554,-406.697 634.116,-404.26"/>
</g>
<!-- preproc (smooth (spm) -->
<g id="node13" class="node"><title>preproc (smooth (spm)</title>
<ellipse fill="none" stroke="black" cx="647" cy="-522" rx="92.413" ry="18"/>
<text text-anchor="middle" x="647" y="-518.3" font-family="Times,serif" font-size="14.00">preproc (smooth (spm)</text>
</g>
<!-- preproc (smooth (spm)&#45;&gt;l1analysis (modelspec (modelgen) -->
<g id="edge13" class="edge"><title>preproc (smooth (spm)&#45;&gt;l1analysis (modelspec (modelgen)</title>
<path fill="none" stroke="black" d="M647,-503.697C647,-495.983 647,-486.712 647,-478.112"/>
<polygon fill="black" stroke="black" points="650.5,-478.104 647,-468.104 643.5,-478.104 650.5,-478.104"/>
</g>
<!-- preproc (realign (spm) -->
<g id="node17" class="node"><title>preproc (realign (spm)</title>
<ellipse fill="none" stroke="black" cx="548" cy="-666" rx="90.4879" ry="18"/>
<text text-anchor="middle" x="548" y="-662.3" font-family="Times,serif" font-size="14.00">preproc (realign (spm)</text>
</g>
<!-- preproc (sliceTiming (spm)&#45;&gt;preproc (realign (spm) -->
<g id="edge17" class="edge"><title>preproc (sliceTiming (spm)&#45;&gt;preproc (realign (spm)</title>
<path fill="none" stroke="black" d="M548,-719.697C548,-711.983 548,-702.712 548,-694.112"/>
<polygon fill="black" stroke="black" points="551.5,-694.104 548,-684.104 544.5,-694.104 551.5,-694.104"/>
</g>
<!-- preproc (binarize (freesurfer)&#45;&gt;datasink (io) -->
<g id="edge15" class="edge"><title>preproc (binarize (freesurfer)&#45;&gt;datasink (io)</title>
<path fill="none" stroke="black" d="M188.519,-432.078C167.09,-406.828 131,-356.895 131,-307 131,-307 131,-307 131,-161 131,-119.398 129.392,-100.177 160,-72 183.541,-50.3288 265.279,-35.0313 323.195,-26.6134"/>
<polygon fill="black" stroke="black" points="323.943,-30.0424 333.351,-25.1716 322.959,-23.1119 323.943,-30.0424"/>
</g>
<!-- preproc (binarize (freesurfer)&#45;&gt;l1analysis (level1design (spm) -->
<g id="edge16" class="edge"><title>preproc (binarize (freesurfer)&#45;&gt;l1analysis (level1design (spm)</title>
<path fill="none" stroke="black" d="M279.033,-436.405C350.956,-424.331 459.435,-406.121 534.856,-393.461"/>
<polygon fill="black" stroke="black" points="535.526,-396.897 544.809,-391.79 534.368,-389.994 535.526,-396.897"/>
</g>
<!-- l1analysis (level1estimate (spm) -->
<g id="node19" class="node"><title>l1analysis (level1estimate (spm)</title>
<ellipse fill="none" stroke="black" cx="621" cy="-306" rx="126.133" ry="18"/>
<text text-anchor="middle" x="621" y="-302.3" font-family="Times,serif" font-size="14.00">l1analysis (level1estimate (spm)</text>
</g>
<!-- l1analysis (level1design (spm)&#45;&gt;l1analysis (level1estimate (spm) -->
<g id="edge29" class="edge"><title>l1analysis (level1design (spm)&#45;&gt;l1analysis (level1estimate (spm)</title>
<path fill="none" stroke="black" d="M621,-359.697C621,-351.983 621,-342.712 621,-334.112"/>
<polygon fill="black" stroke="black" points="624.5,-334.104 621,-324.104 617.5,-334.104 624.5,-334.104"/>
</g>
<!-- preproc (realign (spm)&#45;&gt;preproc (bbregister (freesurfer) -->
<g id="edge20" class="edge"><title>preproc (realign (spm)&#45;&gt;preproc (bbregister (freesurfer)</title>
<path fill="none" stroke="black" d="M487.292,-652.647C430.195,-641.028 344.423,-623.575 282.221,-610.917"/>
<polygon fill="black" stroke="black" points="282.558,-607.414 272.06,-608.85 281.162,-614.273 282.558,-607.414"/>
</g>
<!-- preproc (realign (spm)&#45;&gt;datasink (io) -->
<g id="edge23" class="edge"><title>preproc (realign (spm)&#45;&gt;datasink (io)</title>
<path fill="none" stroke="black" d="M632.822,-659.674C720.289,-649.041 844,-617.329 844,-523 844,-523 844,-523 844,-161 844,-78.7912 572.373,-39.0766 446.574,-25.0919"/>
<polygon fill="black" stroke="black" points="446.641,-21.5785 436.32,-23.9731 445.881,-28.5372 446.641,-21.5785"/>
</g>
<!-- preproc (realign (spm)&#45;&gt;preproc (applyVolTrans (freesurfer) -->
<g id="edge25" class="edge"><title>preproc (realign (spm)&#45;&gt;preproc (applyVolTrans (freesurfer)</title>
<path fill="none" stroke="black" d="M518.311,-648.894C482.754,-629.979 421.08,-598.352 366,-576 334.082,-563.048 297.697,-550.916 267.506,-541.537"/>
<polygon fill="black" stroke="black" points="268.522,-538.188 257.935,-538.591 266.463,-544.878 268.522,-538.188"/>
</g>
<!-- preproc (realign (spm)&#45;&gt;preproc (art (rapidart) -->
<g id="edge21" class="edge"><title>preproc (realign (spm)&#45;&gt;preproc (art (rapidart)</title>
<path fill="none" stroke="black" d="M512.124,-649.437C495.99,-640.683 478.116,-628.218 467,-612 454.547,-593.831 450.023,-569.056 448.484,-550.259"/>
<polygon fill="black" stroke="black" points="451.977,-550.022 447.896,-540.244 444.989,-550.432 451.977,-550.022"/>
</g>
<!-- preproc (realign (spm)&#45;&gt;l1analysis (modelspec (modelgen) -->
<g id="edge24" class="edge"><title>preproc (realign (spm)&#45;&gt;l1analysis (modelspec (modelgen)</title>
<path fill="none" stroke="black" d="M596.805,-650.667C645.599,-633.36 717.62,-598.967 748,-540 755.328,-525.777 756.278,-517.692 748,-504 739.261,-489.546 725.133,-478.839 710.177,-470.988"/>
<polygon fill="black" stroke="black" points="711.326,-467.657 700.799,-466.461 708.283,-473.96 711.326,-467.657"/>
</g>
<!-- preproc (tsnr (misc) -->
<g id="node18" class="node"><title>preproc (tsnr (misc)</title>
<ellipse fill="none" stroke="black" cx="557" cy="-594" rx="81.3646" ry="18"/>
<text text-anchor="middle" x="557" y="-590.3" font-family="Times,serif" font-size="14.00">preproc (tsnr (misc)</text>
</g>
<!-- preproc (realign (spm)&#45;&gt;preproc (tsnr (misc) -->
<g id="edge22" class="edge"><title>preproc (realign (spm)&#45;&gt;preproc (tsnr (misc)</title>
<path fill="none" stroke="black" d="M550.225,-647.697C551.217,-639.983 552.408,-630.712 553.514,-622.112"/>
<polygon fill="black" stroke="black" points="556.997,-622.469 554.801,-612.104 550.054,-621.576 556.997,-622.469"/>
</g>
<!-- preproc (tsnr (misc)&#45;&gt;preproc (art (rapidart) -->
<g id="edge18" class="edge"><title>preproc (tsnr (misc)&#45;&gt;preproc (art (rapidart)</title>
<path fill="none" stroke="black" d="M531.719,-576.765C516.968,-567.291 498.161,-555.214 482.111,-544.906"/>
<polygon fill="black" stroke="black" points="483.827,-541.849 473.521,-539.39 480.044,-547.739 483.827,-541.849"/>
</g>
<!-- preproc (tsnr (misc)&#45;&gt;preproc (smooth (spm) -->
<g id="edge19" class="edge"><title>preproc (tsnr (misc)&#45;&gt;preproc (smooth (spm)</title>
<path fill="none" stroke="black" d="M578.329,-576.411C590.012,-567.324 604.672,-555.922 617.443,-545.989"/>
<polygon fill="black" stroke="black" points="619.768,-548.615 625.512,-539.713 615.47,-543.089 619.768,-548.615"/>
</g>
<!-- l1analysis (level1estimate (spm)&#45;&gt;l1analysis (conestimate (spm) -->
<g id="edge26" class="edge"><title>l1analysis (level1estimate (spm)&#45;&gt;l1analysis (conestimate (spm)</title>
<path fill="none" stroke="black" d="M620.011,-287.697C619.57,-279.983 619.041,-270.712 618.549,-262.112"/>
<polygon fill="black" stroke="black" points="622.042,-261.888 617.977,-252.104 615.054,-262.288 622.042,-261.888"/>
</g>
<!-- l1analysis (mriconvert (freesurfer)&#45;&gt;datasink (io) -->
<g id="edge32" class="edge"><title>l1analysis (mriconvert (freesurfer)&#45;&gt;datasink (io)</title>
<path fill="none" stroke="black" d="M321.85,-72.055C332.556,-62.9155 345.912,-51.5143 357.496,-41.6256"/>
<polygon fill="black" stroke="black" points="359.845,-44.2223 365.178,-35.0676 355.3,-38.8983 359.845,-44.2223"/>
</g>
</g>
</svg>
