<?xml version="1.0" encoding="UTF-8" standalone="no"?>
<!DOCTYPE svg PUBLIC "-//W3C//DTD SVG 1.1//EN"
 "http://www.w3.org/Graphics/SVG/1.1/DTD/svg11.dtd">
<!-- Generated by graphviz version 2.36.0 (20140111.2315)
 -->
<!-- Title: structs Pages: 1 -->
<svg width="1143pt" height="1010pt"
 viewBox="0.00 0.00 1142.75 1010.00" xmlns="http://www.w3.org/2000/svg" xmlns:xlink="http://www.w3.org/1999/xlink">
<g id="graph0" class="graph" transform="scale(1 1) rotate(0) translate(4 1006)">
<title>structs</title>
<polygon fill="white" stroke="none" points="-4,4 -4,-1006 1138.75,-1006 1138.75,4 -4,4"/>
<!-- metaflowinfosource -->
<g id="node1" class="node"><title>metaflowinfosource</title>
<polygon fill="none" stroke="black" points="139.252,-932.5 139.252,-1001.5 316.252,-1001.5 316.252,-932.5 139.252,-932.5"/>
<text text-anchor="middle" x="154.752" y="-963.3" font-family="Times,serif" font-size="14.00">IN</text>
<polyline fill="none" stroke="black" points="170.252,-932.5 170.252,-1001.5 "/>
<text text-anchor="middle" x="207.252" y="-986.3" font-family="Times,serif" font-size="14.00">infosource</text>
<polyline fill="none" stroke="black" points="170.252,-978.5 244.252,-978.5 "/>
<text text-anchor="middle" x="207.252" y="-963.3" font-family="Times,serif" font-size="14.00">utility</text>
<polyline fill="none" stroke="black" points="170.252,-955.5 244.252,-955.5 "/>
<text text-anchor="middle" x="207.252" y="-940.3" font-family="Times,serif" font-size="14.00"> </text>
<polyline fill="none" stroke="black" points="244.252,-932.5 244.252,-1001.5 "/>
<text text-anchor="middle" x="280.252" y="-986.3" font-family="Times,serif" font-size="14.00">OUT</text>
<polyline fill="none" stroke="black" points="244.252,-978.5 316.252,-978.5 "/>
<text text-anchor="middle" x="280.252" y="-963.3" font-family="Times,serif" font-size="14.00">contrasts</text>
<polyline fill="none" stroke="black" points="244.252,-955.5 316.252,-955.5 "/>
<text text-anchor="middle" x="280.252" y="-940.3" font-family="Times,serif" font-size="14.00">subject_id</text>
</g>
<!-- metaflowselectfiles -->
<g id="node2" class="node"><title>metaflowselectfiles</title>
<polygon fill="none" stroke="black" points="317.252,-826.5 317.252,-895.5 504.252,-895.5 504.252,-826.5 317.252,-826.5"/>
<text text-anchor="middle" x="353.252" y="-874.8" font-family="Times,serif" font-size="14.00">IN</text>
<polyline fill="none" stroke="black" points="317.252,-861.5 389.252,-861.5 "/>
<text text-anchor="middle" x="353.252" y="-840.3" font-family="Times,serif" font-size="14.00">subject_id</text>
<polyline fill="none" stroke="black" points="389.252,-826.5 389.252,-895.5 "/>
<text text-anchor="middle" x="424.752" y="-880.3" font-family="Times,serif" font-size="14.00">selectfiles</text>
<polyline fill="none" stroke="black" points="389.252,-872.5 460.252,-872.5 "/>
<text text-anchor="middle" x="424.752" y="-857.3" font-family="Times,serif" font-size="14.00">io</text>
<polyline fill="none" stroke="black" points="389.252,-849.5 460.252,-849.5 "/>
<text text-anchor="middle" x="424.752" y="-834.3" font-family="Times,serif" font-size="14.00"> </text>
<polyline fill="none" stroke="black" points="460.252,-826.5 460.252,-895.5 "/>
<text text-anchor="middle" x="482.252" y="-874.8" font-family="Times,serif" font-size="14.00">OUT</text>
<polyline fill="none" stroke="black" points="460.252,-861.5 504.252,-861.5 "/>
<text text-anchor="middle" x="482.252" y="-840.3" font-family="Times,serif" font-size="14.00">func</text>
</g>
<!-- metaflowinfosource&#45;&gt;metaflowselectfiles -->
<g id="edge6" class="edge"><title>metaflowinfosource:outsubjectid:e&#45;&gt;metaflowselectfiles:insubjectid:w</title>
<path fill="none" stroke="black" d="M317.752,-944C339.09,-944 317.179,-917.334 316.752,-896 316.394,-878.125 302.164,-856.794 306.429,-848.046"/>
<polygon fill="black" stroke="black" points="307.971,-851.192 315.752,-844 305.185,-844.77 307.971,-851.192"/>
</g>
<!-- metaflowpreproc -->
<g id="node3" class="node"><title>metaflowpreproc</title>
<polygon fill="none" stroke="black" points="504.752,-559 504.752,-789 882.752,-789 882.752,-559 504.752,-559"/>
<text text-anchor="middle" x="569.752" y="-756.8" font-family="Times,serif" font-size="14.00">IN</text>
<polyline fill="none" stroke="black" points="504.752,-732 634.752,-732 "/>
<text text-anchor="middle" x="569.752" y="-699.3" font-family="Times,serif" font-size="14.00">bbregister.subject_id</text>
<polyline fill="none" stroke="black" points="504.752,-674 634.752,-674 "/>
<text text-anchor="middle" x="569.752" y="-641.8" font-family="Times,serif" font-size="14.00">despike.in_file</text>
<polyline fill="none" stroke="black" points="504.752,-617 634.752,-617 "/>
<text text-anchor="middle" x="569.752" y="-584.3" font-family="Times,serif" font-size="14.00">fssource.subject_id</text>
<polyline fill="none" stroke="black" points="634.752,-559 634.752,-789 "/>
<text text-anchor="middle" x="663.752" y="-747.3" font-family="Times,serif" font-size="14.00">preproc</text>
<polyline fill="none" stroke="black" points="634.752,-713 692.752,-713 "/>
<text text-anchor="middle" x="663.752" y="-670.8" font-family="Times,serif" font-size="14.00"> </text>
<polyline fill="none" stroke="black" points="634.752,-636 692.752,-636 "/>
<text text-anchor="middle" x="663.752" y="-593.8" font-family="Times,serif" font-size="14.00"> </text>
<polyline fill="none" stroke="black" points="692.752,-559 692.752,-789 "/>
<text text-anchor="middle" x="787.752" y="-773.8" font-family="Times,serif" font-size="14.00">OUT</text>
<polyline fill="none" stroke="black" points="692.752,-766 882.752,-766 "/>
<text text-anchor="middle" x="787.752" y="-750.8" font-family="Times,serif" font-size="14.00">art.outlier_files</text>
<polyline fill="none" stroke="black" points="692.752,-743 882.752,-743 "/>
<text text-anchor="middle" x="787.752" y="-727.8" font-family="Times,serif" font-size="14.00">art.plot_files</text>
<polyline fill="none" stroke="black" points="692.752,-720 882.752,-720 "/>
<text text-anchor="middle" x="787.752" y="-704.8" font-family="Times,serif" font-size="14.00">bbregister.out_fsl_file</text>
<polyline fill="none" stroke="black" points="692.752,-697 882.752,-697 "/>
<text text-anchor="middle" x="787.752" y="-681.8" font-family="Times,serif" font-size="14.00">bbregister.out_reg_file</text>
<polyline fill="none" stroke="black" points="692.752,-674 882.752,-674 "/>
<text text-anchor="middle" x="787.752" y="-658.8" font-family="Times,serif" font-size="14.00">bbregister.registered_file</text>
<polyline fill="none" stroke="black" points="692.752,-651 882.752,-651 "/>
<text text-anchor="middle" x="787.752" y="-635.8" font-family="Times,serif" font-size="14.00">binarize.binary_file</text>
<polyline fill="none" stroke="black" points="692.752,-628 882.752,-628 "/>
<text text-anchor="middle" x="787.752" y="-612.8" font-family="Times,serif" font-size="14.00">realign.mean_image</text>
<polyline fill="none" stroke="black" points="692.752,-605 882.752,-605 "/>
<text text-anchor="middle" x="787.752" y="-589.8" font-family="Times,serif" font-size="14.00">realign.realignment_parameters</text>
<polyline fill="none" stroke="black" points="692.752,-582 882.752,-582 "/>
<text text-anchor="middle" x="787.752" y="-566.8" font-family="Times,serif" font-size="14.00">smooth.smoothed_files</text>
</g>
<!-- metaflowinfosource&#45;&gt;metaflowpreproc -->
<g id="edge4" class="edge"><title>metaflowinfosource:outsubjectid:e&#45;&gt;metaflowpreproc:inbbregistersubjectid:w</title>
<path fill="none" stroke="black" d="M317.752,-944C362.379,-944 485.224,-931.125 512.752,-896 563.341,-831.448 430.758,-714.151 493.555,-703.743"/>
<polygon fill="black" stroke="black" points="494.032,-707.217 503.752,-703 493.524,-700.236 494.032,-707.217"/>
</g>
<!-- metaflowinfosource&#45;&gt;metaflowpreproc -->
<g id="edge5" class="edge"><title>metaflowinfosource:outsubjectid:e&#45;&gt;metaflowpreproc:infssourcesubjectid:w</title>
<path fill="none" stroke="black" d="M317.752,-944C366.706,-944 502.139,-934.201 532.752,-896 552.207,-871.722 542.848,-855.427 532.752,-826 526.173,-806.827 511.377,-809.156 504.752,-790 476.609,-708.633 418.958,-597.556 493.455,-588.581"/>
<polygon fill="black" stroke="black" points="493.965,-592.058 503.752,-588 493.57,-585.069 493.965,-592.058"/>
</g>
<!-- metaflowgetsubjectinfo -->
<g id="node4" class="node"><title>metaflowgetsubjectinfo</title>
<polygon fill="none" stroke="black" points="13.7518,-639.5 13.7518,-708.5 261.752,-708.5 261.752,-639.5 13.7518,-639.5"/>
<text text-anchor="middle" x="49.7518" y="-687.8" font-family="Times,serif" font-size="14.00">IN</text>
<polyline fill="none" stroke="black" points="13.7518,-674.5 85.7518,-674.5 "/>
<text text-anchor="middle" x="49.7518" y="-653.3" font-family="Times,serif" font-size="14.00">subject_id</text>
<polyline fill="none" stroke="black" points="85.7518,-639.5 85.7518,-708.5 "/>
<text text-anchor="middle" x="132.252" y="-693.3" font-family="Times,serif" font-size="14.00">getsubjectinfo</text>
<polyline fill="none" stroke="black" points="85.7518,-685.5 178.752,-685.5 "/>
<text text-anchor="middle" x="132.252" y="-670.3" font-family="Times,serif" font-size="14.00">utility</text>
<polyline fill="none" stroke="black" points="85.7518,-662.5 178.752,-662.5 "/>
<text text-anchor="middle" x="132.252" y="-647.3" font-family="Times,serif" font-size="14.00"> </text>
<polyline fill="none" stroke="black" points="178.752,-639.5 178.752,-708.5 "/>
<text text-anchor="middle" x="220.252" y="-687.8" font-family="Times,serif" font-size="14.00">OUT</text>
<polyline fill="none" stroke="black" points="178.752,-674.5 261.752,-674.5 "/>
<text text-anchor="middle" x="220.252" y="-653.3" font-family="Times,serif" font-size="14.00">subject_info</text>
</g>
<!-- metaflowinfosource&#45;&gt;metaflowgetsubjectinfo -->
<g id="edge3" class="edge"><title>metaflowinfosource:outsubjectid:e&#45;&gt;metaflowgetsubjectinfo:insubjectid:w</title>
<path fill="none" stroke="black" d="M317.752,-944C323.104,-944 319.363,-936.671 316.752,-932 306.553,-913.756 23.3622,-727.56 13.7518,-709 5.199,-692.482 -5.2044,-668.877 3.10237,-660.286"/>
<polygon fill="black" stroke="black" points="4.41373,-663.537 12.7518,-657 2.1573,-656.91 4.41373,-663.537"/>
</g>
<!-- metaflowl1analysis -->
<g id="node5" class="node"><title>metaflowl1analysis</title>
<polygon fill="none" stroke="black" points="333.252,-337 333.252,-521 778.252,-521 778.252,-337 333.252,-337"/>
<text text-anchor="middle" x="438.752" y="-505.8" font-family="Times,serif" font-size="14.00">IN</text>
<polyline fill="none" stroke="black" points="333.252,-498 544.252,-498 "/>
<text text-anchor="middle" x="438.752" y="-482.8" font-family="Times,serif" font-size="14.00">applyVolReg.reg_file</text>
<polyline fill="none" stroke="black" points="333.252,-475 544.252,-475 "/>
<text text-anchor="middle" x="438.752" y="-459.8" font-family="Times,serif" font-size="14.00">conestimate.contrasts</text>
<polyline fill="none" stroke="black" points="333.252,-452 544.252,-452 "/>
<text text-anchor="middle" x="438.752" y="-436.8" font-family="Times,serif" font-size="14.00">level1design.mask_image</text>
<polyline fill="none" stroke="black" points="333.252,-429 544.252,-429 "/>
<text text-anchor="middle" x="438.752" y="-413.8" font-family="Times,serif" font-size="14.00">modelspec.functional_runs</text>
<polyline fill="none" stroke="black" points="333.252,-406 544.252,-406 "/>
<text text-anchor="middle" x="438.752" y="-390.8" font-family="Times,serif" font-size="14.00">modelspec.outlier_files</text>
<polyline fill="none" stroke="black" points="333.252,-383 544.252,-383 "/>
<text text-anchor="middle" x="438.752" y="-367.8" font-family="Times,serif" font-size="14.00">modelspec.realignment_parameters</text>
<polyline fill="none" stroke="black" points="333.252,-360 544.252,-360 "/>
<text text-anchor="middle" x="438.752" y="-344.8" font-family="Times,serif" font-size="14.00">modelspec.subject_info</text>
<polyline fill="none" stroke="black" points="544.252,-337 544.252,-521 "/>
<text text-anchor="middle" x="579.752" y="-486.8" font-family="Times,serif" font-size="14.00">l1analysis</text>
<polyline fill="none" stroke="black" points="544.252,-460 615.252,-460 "/>
<text text-anchor="middle" x="579.752" y="-425.8" font-family="Times,serif" font-size="14.00"> </text>
<polyline fill="none" stroke="black" points="544.252,-399 615.252,-399 "/>
<text text-anchor="middle" x="579.752" y="-364.3" font-family="Times,serif" font-size="14.00"> </text>
<polyline fill="none" stroke="black" points="615.252,-337 615.252,-521 "/>
<text text-anchor="middle" x="696.752" y="-499.3" font-family="Times,serif" font-size="14.00">OUT</text>
<polyline fill="none" stroke="black" points="615.252,-485 778.252,-485 "/>
<text text-anchor="middle" x="696.752" y="-462.8" font-family="Times,serif" font-size="14.00">conestimate.con_images</text>
<polyline fill="none" stroke="black" points="615.252,-448 778.252,-448 "/>
<text text-anchor="middle" x="696.752" y="-425.8" font-family="Times,serif" font-size="14.00">conestimate.spmT_images</text>
<polyline fill="none" stroke="black" points="615.252,-411 778.252,-411 "/>
<text text-anchor="middle" x="696.752" y="-388.8" font-family="Times,serif" font-size="14.00">conestimate.spm_mat_file</text>
<polyline fill="none" stroke="black" points="615.252,-374 778.252,-374 "/>
<text text-anchor="middle" x="696.752" y="-351.8" font-family="Times,serif" font-size="14.00">mriconvert.out_file</text>
</g>
<!-- metaflowinfosource&#45;&gt;metaflowl1analysis -->
<g id="edge2" class="edge"><title>metaflowinfosource:outcontrasts:e&#45;&gt;metaflowl1analysis:inconestimatecontrasts:w</title>
<path fill="none" stroke="black" d="M317.752,-967C333.314,-967 318.874,-947.417 316.752,-932 314.503,-915.662 309.767,-912.369 307.752,-896 303.951,-865.122 306.722,-857.094 307.752,-826 310.3,-749.043 256.332,-488.879 321.716,-465.66"/>
<polygon fill="black" stroke="black" points="322.457,-469.085 331.752,-464 321.315,-462.179 322.457,-469.085"/>
</g>
<!-- metaflowselectfiles&#45;&gt;metaflowpreproc -->
<g id="edge24" class="edge"><title>metaflowselectfiles:outfunc:e&#45;&gt;metaflowpreproc:indespikeinfile:w</title>
<path fill="none" stroke="black" d="M505.752,-844C529.756,-844 505.057,-814.002 504.752,-790 503.981,-729.335 446.66,-654.385 493.714,-645.81"/>
<polygon fill="black" stroke="black" points="494.066,-649.293 503.752,-645 493.503,-642.316 494.066,-649.293"/>
</g>
<!-- metaflowpreproc&#45;&gt;metaflowl1analysis -->
<g id="edge12" class="edge"><title>metaflowpreproc:outartoutlierfiles:e&#45;&gt;metaflowl1analysis:inmodelspecoutlierfiles:w</title>
<path fill="none" stroke="black" d="M883.752,-755C971.308,-755 942.77,-621.75 882.752,-558 798.792,-468.82 416.833,-611.065 332.752,-522 296.215,-483.298 277.373,-404.979 321.68,-395.044"/>
<polygon fill="black" stroke="black" points="322.166,-398.513 331.752,-394 321.444,-391.55 322.166,-398.513"/>
</g>
<!-- metaflowpreproc&#45;&gt;metaflowl1analysis -->
<g id="edge16" class="edge"><title>metaflowpreproc:outbbregisteroutregfile:e&#45;&gt;metaflowl1analysis:inapplyVolRegregfile:w</title>
<path fill="none" stroke="black" d="M883.752,-686C940.642,-686 921.805,-599.368 882.752,-558 798.67,-468.935 417.753,-610.188 332.752,-522 325.158,-514.122 320.055,-500.019 323.104,-492.34"/>
<polygon fill="black" stroke="black" points="325.082,-495.232 331.752,-487 321.404,-489.276 325.082,-495.232"/>
</g>
<!-- metaflowpreproc&#45;&gt;metaflowl1analysis -->
<g id="edge19" class="edge"><title>metaflowpreproc:outbinarizebinaryfile:e&#45;&gt;metaflowl1analysis:inlevel1designmaskimage:w</title>
<path fill="none" stroke="black" d="M883.752,-639C919.755,-639 907.526,-584.124 882.752,-558 798.469,-469.126 417.035,-610.874 332.752,-522 310.687,-498.734 298.574,-452.66 321.623,-442.86"/>
<polygon fill="black" stroke="black" points="322.548,-446.249 331.752,-441 321.284,-439.364 322.548,-446.249"/>
</g>
<!-- metaflowpreproc&#45;&gt;metaflowl1analysis -->
<g id="edge22" class="edge"><title>metaflowpreproc:outrealignrealignmentparameters:e&#45;&gt;metaflowl1analysis:inmodelspecrealignmentparameters:w</title>
<path fill="none" stroke="black" d="M883.752,-593C899.314,-593 893.551,-569.205 882.752,-558 797.751,-469.812 416.78,-611.115 332.752,-522 289.228,-475.841 267.125,-382.015 321.531,-371.891"/>
<polygon fill="black" stroke="black" points="322.094,-375.356 331.752,-371 321.485,-368.382 322.094,-375.356"/>
</g>
<!-- metaflowpreproc&#45;&gt;metaflowl1analysis -->
<g id="edge23" class="edge"><title>metaflowpreproc:outsmoothsmoothedfiles:e&#45;&gt;metaflowl1analysis:inmodelspecfunctionalruns:w</title>
<path fill="none" stroke="black" d="M883.752,-570C889.104,-570 886.57,-561.751 882.752,-558 795.376,-472.164 416.909,-610.993 332.752,-522 303.316,-490.873 287.754,-428.413 321.499,-418.375"/>
<polygon fill="black" stroke="black" points="322.306,-421.799 331.752,-417 321.375,-414.861 322.306,-421.799"/>
</g>
<!-- metaflowdatasink -->
<g id="node6" class="node"><title>metaflowdatasink</title>
<polygon fill="none" stroke="black" points="864.252,-0.5 864.252,-299.5 1135.25,-299.5 1135.25,-0.5 864.252,-0.5"/>
<text text-anchor="middle" x="946.752" y="-284.3" font-family="Times,serif" font-size="14.00">IN</text>
<polyline fill="none" stroke="black" points="864.252,-276.5 1029.25,-276.5 "/>
<text text-anchor="middle" x="946.752" y="-261.3" font-family="Times,serif" font-size="14.00">bbregister.@out_fsl_file</text>
<polyline fill="none" stroke="black" points="864.252,-253.5 1029.25,-253.5 "/>
<text text-anchor="middle" x="946.752" y="-238.3" font-family="Times,serif" font-size="14.00">bbregister.@out_reg_file</text>
<polyline fill="none" stroke="black" points="864.252,-230.5 1029.25,-230.5 "/>
<text text-anchor="middle" x="946.752" y="-215.3" font-family="Times,serif" font-size="14.00">bbregister.@registered_file</text>
<polyline fill="none" stroke="black" points="864.252,-207.5 1029.25,-207.5 "/>
<text text-anchor="middle" x="946.752" y="-192.3" font-family="Times,serif" font-size="14.00">contrasts.@T</text>
<polyline fill="none" stroke="black" points="864.252,-184.5 1029.25,-184.5 "/>
<text text-anchor="middle" x="946.752" y="-169.3" font-family="Times,serif" font-size="14.00">contrasts.@con</text>
<polyline fill="none" stroke="black" points="864.252,-161.5 1029.25,-161.5 "/>
<text text-anchor="middle" x="946.752" y="-146.3" font-family="Times,serif" font-size="14.00">contrasts.@contrasts</text>
<polyline fill="none" stroke="black" points="864.252,-138.5 1029.25,-138.5 "/>
<text text-anchor="middle" x="946.752" y="-123.3" font-family="Times,serif" font-size="14.00">contrasts.@spm_mat</text>
<polyline fill="none" stroke="black" points="864.252,-115.5 1029.25,-115.5 "/>
<text text-anchor="middle" x="946.752" y="-100.3" font-family="Times,serif" font-size="14.00">functionals.@brainmask</text>
<polyline fill="none" stroke="black" points="864.252,-92.5 1029.25,-92.5 "/>
<text text-anchor="middle" x="946.752" y="-77.3" font-family="Times,serif" font-size="14.00">functionals.@mean</text>
<polyline fill="none" stroke="black" points="864.252,-69.5 1029.25,-69.5 "/>
<text text-anchor="middle" x="946.752" y="-54.3" font-family="Times,serif" font-size="14.00">functionals.@outliers</text>
<polyline fill="none" stroke="black" points="864.252,-46.5 1029.25,-46.5 "/>
<text text-anchor="middle" x="946.752" y="-31.3" font-family="Times,serif" font-size="14.00">functionals.@parameters</text>
<polyline fill="none" stroke="black" points="864.252,-23.5 1029.25,-23.5 "/>
<text text-anchor="middle" x="946.752" y="-8.3" font-family="Times,serif" font-size="14.00">functionals.@plot</text>
<polyline fill="none" stroke="black" points="1029.25,-0.5 1029.25,-299.5 "/>
<text text-anchor="middle" x="1060.25" y="-246.3" font-family="Times,serif" font-size="14.00">datasink</text>
<polyline fill="none" stroke="black" points="1029.25,-200.5 1091.25,-200.5 "/>
<text text-anchor="middle" x="1060.25" y="-146.8" font-family="Times,serif" font-size="14.00">io</text>
<polyline fill="none" stroke="black" points="1029.25,-100.5 1091.25,-100.5 "/>
<text text-anchor="middle" x="1060.25" y="-46.8" font-family="Times,serif" font-size="14.00"> </text>
<polyline fill="none" stroke="black" points="1091.25,-0.5 1091.25,-299.5 "/>
<text text-anchor="middle" x="1113.25" y="-146.3" font-family="Times,serif" font-size="14.00">OUT</text>
</g>
<!-- metaflowpreproc&#45;&gt;metaflowdatasink -->
<g id="edge11" class="edge"><title>metaflowpreproc:outartoutlierfiles:e&#45;&gt;metaflowdatasink:infunctionalsoutliers:w</title>
<path fill="none" stroke="black" d="M883.752,-755C971.308,-755 923.584,-635.453 882.752,-558 869.643,-533.135 843.797,-546.898 830.752,-522 796.843,-457.283 847.248,-128.787 860.103,-67.7633"/>
<polygon fill="black" stroke="black" points="863.511,-68.5676 862.752,-58 856.755,-66.7345 863.511,-68.5676"/>
</g>
<!-- metaflowpreproc&#45;&gt;metaflowdatasink -->
<g id="edge13" class="edge"><title>metaflowpreproc:outartplotfiles:e&#45;&gt;metaflowdatasink:infunctionalsplot:w</title>
<path fill="none" stroke="black" d="M883.752,-732C961.086,-732 897.229,-633.967 882.752,-558 879.538,-541.136 872.107,-538.836 868.752,-522 849.464,-425.211 865.034,-398.683 863.752,-300 862.135,-175.635 741.863,-21.0374 852.482,-12.3806"/>
<polygon fill="black" stroke="black" points="852.888,-15.8681 862.752,-12 852.629,-8.8729 852.888,-15.8681"/>
</g>
<!-- metaflowpreproc&#45;&gt;metaflowdatasink -->
<g id="edge14" class="edge"><title>metaflowpreproc:outbbregisteroutfslfile:e&#45;&gt;metaflowdatasink:inbbregisteroutfslfile:w</title>
<path fill="none" stroke="black" d="M883.752,-709C902.726,-709 876.741,-415.232 868.752,-336 866.046,-309.169 840.633,-276.548 852.704,-267.455"/>
<polygon fill="black" stroke="black" points="853.868,-270.774 862.752,-265 852.207,-263.974 853.868,-270.774"/>
</g>
<!-- metaflowpreproc&#45;&gt;metaflowdatasink -->
<g id="edge15" class="edge"><title>metaflowpreproc:outbbregisteroutregfile:e&#45;&gt;metaflowdatasink:inbbregisteroutregfile:w</title>
<path fill="none" stroke="black" d="M883.752,-686C902.613,-686 897.553,-356.405 890.752,-336 884.427,-317.026 870.24,-318.918 863.752,-300 856.826,-279.804 843.004,-253.282 853.1,-244.761"/>
<polygon fill="black" stroke="black" points="854.1,-248.116 862.752,-242 852.175,-241.386 854.1,-248.116"/>
</g>
<!-- metaflowpreproc&#45;&gt;metaflowdatasink -->
<g id="edge17" class="edge"><title>metaflowpreproc:outbbregisterregisteredfile:e&#45;&gt;metaflowdatasink:inbbregisterregisteredfile:w</title>
<path fill="none" stroke="black" d="M883.752,-662C944.194,-662 926.706,-375.998 907.752,-336 896.932,-313.167 874.713,-322.766 863.752,-300 849.903,-271.236 831.52,-229.795 852.634,-220.775"/>
<polygon fill="black" stroke="black" points="853.507,-224.176 862.752,-219 852.297,-217.281 853.507,-224.176"/>
</g>
<!-- metaflowpreproc&#45;&gt;metaflowdatasink -->
<g id="edge18" class="edge"><title>metaflowpreproc:outbinarizebinaryfile:e&#45;&gt;metaflowdatasink:infunctionalsbrainmask:w</title>
<path fill="none" stroke="black" d="M883.752,-639C939.626,-639 919.348,-576.897 929.752,-522 945.145,-440.779 971.95,-407.085 929.752,-336 912.695,-307.268 880.881,-328.688 863.752,-300 820.925,-228.274 779.206,-113.865 852.683,-104.6"/>
<polygon fill="black" stroke="black" points="852.978,-108.089 862.752,-104 852.561,-101.101 852.978,-108.089"/>
</g>
<!-- metaflowpreproc&#45;&gt;metaflowdatasink -->
<g id="edge20" class="edge"><title>metaflowpreproc:outrealignmeanimage:e&#45;&gt;metaflowdatasink:infunctionalsmean:w</title>
<path fill="none" stroke="black" d="M883.752,-616C1028.97,-616 955.902,-337.692 954.752,-336 930.299,-300.03 888.286,-335.914 863.752,-300 810.831,-222.533 768.571,-90.9421 852.746,-81.5337"/>
<polygon fill="black" stroke="black" points="852.952,-85.0278 862.752,-81 852.58,-78.0377 852.952,-85.0278"/>
</g>
<!-- metaflowpreproc&#45;&gt;metaflowdatasink -->
<g id="edge21" class="edge"><title>metaflowpreproc:outrealignrealignmentparameters:e&#45;&gt;metaflowdatasink:infunctionalsparameters:w</title>
<path fill="none" stroke="black" d="M883.752,-593C1005.37,-593 1049.65,-434.098 977.752,-336 946.343,-293.144 895.241,-342.796 863.752,-300 796.063,-208.006 747.958,-45.2321 852.51,-35.461"/>
<polygon fill="black" stroke="black" points="852.919,-38.9462 862.752,-35 852.604,-31.9532 852.919,-38.9462"/>
</g>
<!-- metaflowgetsubjectinfo&#45;&gt;metaflowl1analysis -->
<g id="edge1" class="edge"><title>metaflowgetsubjectinfo:outsubjectinfo:e&#45;&gt;metaflowl1analysis:inmodelspecsubjectinfo:w</title>
<path fill="none" stroke="black" d="M262.752,-657C273.846,-657 273.596,-568.883 275.752,-558 293.827,-466.763 239.455,-356.525 321.63,-348.469"/>
<polygon fill="black" stroke="black" points="321.925,-351.959 331.752,-348 321.6,-344.967 321.925,-351.959"/>
</g>
<!-- metaflowl1analysis&#45;&gt;metaflowdatasink -->
<g id="edge7" class="edge"><title>metaflowl1analysis:outconestimateconimages:e&#45;&gt;metaflowdatasink:incontrastscon:w</title>
<path fill="none" stroke="black" d="M779.752,-467C794.379,-467 789.101,-350.164 792.752,-336 811.547,-263.083 786.375,-180.764 852.762,-173.516"/>
<polygon fill="black" stroke="black" points="852.946,-177.011 862.752,-173 852.585,-170.02 852.946,-177.011"/>
</g>
<!-- metaflowl1analysis&#45;&gt;metaflowdatasink -->
<g id="edge8" class="edge"><title>metaflowl1analysis:outconestimatespmTimages:e&#45;&gt;metaflowdatasink:incontrastsT:w</title>
<path fill="none" stroke="black" d="M779.752,-430C800.839,-430 786.509,-356.143 792.752,-336 812.26,-273.056 795.198,-203.738 852.476,-196.602"/>
<polygon fill="black" stroke="black" points="852.974,-200.079 862.752,-196 852.564,-193.091 852.974,-200.079"/>
</g>
<!-- metaflowl1analysis&#45;&gt;metaflowdatasink -->
<g id="edge9" class="edge"><title>metaflowl1analysis:outconestimatespmmatfile:e&#45;&gt;metaflowdatasink:incontrastsspmmat:w</title>
<path fill="none" stroke="black" d="M779.752,-392C792.527,-392 789.275,-348.293 792.752,-336 818.45,-245.144 768.632,-135.265 852.72,-127.443"/>
<polygon fill="black" stroke="black" points="852.916,-130.938 862.752,-127 852.607,-123.945 852.916,-130.938"/>
</g>
<!-- metaflowl1analysis&#45;&gt;metaflowdatasink -->
<g id="edge10" class="edge"><title>metaflowl1analysis:outmriconvertoutfile:e&#45;&gt;metaflowdatasink:incontrastscontrasts:w</title>
<path fill="none" stroke="black" d="M779.752,-355C790.575,-355 837.198,-195.938 856.551,-158.036"/>
<polygon fill="black" stroke="black" points="859.414,-160.055 862.752,-150 853.872,-155.779 859.414,-160.055"/>
</g>
</g>
</svg>
