<?xml version="1.0" encoding="UTF-8" standalone="no"?>
<!DOCTYPE svg PUBLIC "-//W3C//DTD SVG 1.1//EN"
 "http://www.w3.org/Graphics/SVG/1.1/DTD/svg11.dtd">
<!-- Generated by graphviz version 2.38.0 (20140413.2041)
 -->
<!-- Title: metaflow Pages: 1 -->
<svg width="863pt" height="953pt"
 viewBox="0.00 0.00 863.00 953.00" xmlns="http://www.w3.org/2000/svg" xmlns:xlink="http://www.w3.org/1999/xlink">
<g id="graph0" class="graph" transform="scale(1 1) rotate(0) translate(4 949)">
<title>metaflow</title>
<polygon fill="white" stroke="none" points="-4,4 -4,-949 859,-949 859,4 -4,4"/>
<text text-anchor="middle" x="427.5" y="-7.8" font-family="Times,serif" font-size="14.00">metaflow</text>
<g id="clust1" class="cluster"><title>cluster_metaflow_preproc</title>
<polygon fill="#b4b4ff" stroke="black" points="38,-391 38,-829 534,-829 534,-391 38,-391"/>
<text text-anchor="middle" x="286" y="-813.8" font-family="Times,serif" font-size="14.00">preproc</text>
</g>
<g id="clust2" class="cluster"><title>cluster_metaflow_l1analysis</title>
<polygon fill="#b4b4ff" stroke="black" points="597,-31 597,-466 813,-466 813,-31 597,-31"/>
<text text-anchor="middle" x="705" y="-450.8" font-family="Times,serif" font-size="14.00">l1analysis</text>
</g>
<!-- metaflow_infosource -->
<g id="node1" class="node"><title>metaflow_infosource</title>
<polygon fill="#d9d9d9" stroke="black" points="497.5,-945 382.5,-945 378.5,-941 378.5,-909 493.5,-909 497.5,-913 497.5,-945"/>
<polyline fill="none" stroke="black" points="493.5,-941 378.5,-941 "/>
<polyline fill="none" stroke="black" points="493.5,-941 493.5,-909 "/>
<polyline fill="none" stroke="black" points="493.5,-941 497.5,-945 "/>
<text text-anchor="middle" x="438" y="-923.3" font-family="Times,serif" font-size="14.00">infosource (utility)</text>
</g>
<!-- metaflow_selectfiles -->
<g id="node2" class="node"><title>metaflow_selectfiles</title>
<ellipse fill="#ffffc8" stroke="black" cx="237" cy="-855" rx="61.1893" ry="18"/>
<text text-anchor="middle" x="237" y="-851.3" font-family="Times,serif" font-size="14.00">selectfiles (io)</text>
</g>
<!-- metaflow_infosource&#45;&gt;metaflow_selectfiles -->
<g id="edge1" class="edge"><title>metaflow_infosource&#45;&gt;metaflow_selectfiles</title>
<path fill="none" stroke="black" d="M389.087,-908.966C357.283,-897.89 316.023,-883.521 284.504,-872.544"/>
<polygon fill="black" stroke="black" points="285.652,-869.237 275.057,-869.254 283.349,-875.848 285.652,-869.237"/>
</g>
<!-- metaflow_getsubjectinfo -->
<g id="node3" class="node"><title>metaflow_getsubjectinfo</title>
<ellipse fill="#ffffc8" stroke="black" cx="628" cy="-855" rx="89.8845" ry="18"/>
<text text-anchor="middle" x="628" y="-851.3" font-family="Times,serif" font-size="14.00">getsubjectinfo (utility)</text>
</g>
<!-- metaflow_infosource&#45;&gt;metaflow_getsubjectinfo -->
<g id="edge2" class="edge"><title>metaflow_infosource&#45;&gt;metaflow_getsubjectinfo</title>
<path fill="none" stroke="black" d="M484.479,-908.876C512.709,-898.476 548.751,-885.197 577.655,-874.548"/>
<polygon fill="black" stroke="black" points="578.988,-877.787 587.162,-871.046 576.568,-871.219 578.988,-877.787"/>
</g>
<!-- metaflow_preproc_fssource -->
<g id="node8" class="node"><title>metaflow_preproc_fssource</title>
<ellipse fill="#e6e6ff" stroke="black" cx="276" cy="-564" rx="55.4913" ry="18"/>
<text text-anchor="middle" x="276" y="-560.3" font-family="Times,serif" font-size="14.00">fssource (io)</text>
</g>
<!-- metaflow_infosource&#45;&gt;metaflow_preproc_fssource -->
<g id="edge25" class="edge"><title>metaflow_infosource&#45;&gt;metaflow_preproc_fssource</title>
<path fill="none" stroke="black" d="M417.138,-908.692C389.445,-883.643 344,-834.401 344,-781 344,-781 344,-781 344,-707 344,-662.357 316.322,-616.88 296.283,-589.803"/>
<polygon fill="black" stroke="black" points="298.937,-587.512 290.09,-581.683 293.371,-591.757 298.937,-587.512"/>
</g>
<!-- metaflow_preproc_bbregister -->
<g id="node12" class="node"><title>metaflow_preproc_bbregister</title>
<ellipse fill="#e6e6ff" stroke="black" cx="438" cy="-564" rx="88.2844" ry="18"/>
<text text-anchor="middle" x="438" y="-560.3" font-family="Times,serif" font-size="14.00">bbregister (freesurfer)</text>
</g>
<!-- metaflow_infosource&#45;&gt;metaflow_preproc_bbregister -->
<g id="edge24" class="edge"><title>metaflow_infosource&#45;&gt;metaflow_preproc_bbregister</title>
<path fill="none" stroke="black" d="M438,-908.591C438,-881.368 438,-827.068 438,-781 438,-781 438,-781 438,-707 438,-666.996 438,-620.653 438,-592.08"/>
<polygon fill="black" stroke="black" points="441.5,-592.049 438,-582.049 434.5,-592.049 441.5,-592.049"/>
</g>
<!-- metaflow_l1analysis_conestimate -->
<g id="node19" class="node"><title>metaflow_l1analysis_conestimate</title>
<ellipse fill="#e6e6ff" stroke="black" cx="690" cy="-201" rx="76.8869" ry="18"/>
<text text-anchor="middle" x="690" y="-197.3" font-family="Times,serif" font-size="14.00">conestimate (spm)</text>
</g>
<!-- metaflow_infosource&#45;&gt;metaflow_l1analysis_conestimate -->
<g id="edge23" class="edge"><title>metaflow_infosource&#45;&gt;metaflow_l1analysis_conestimate</title>
<path fill="none" stroke="black" d="M497.758,-922.711C557.784,-917.669 651.899,-904.955 727,-873 791.466,-845.57 855,-851.059 855,-781 855,-781 855,-781 855,-344 855,-282.527 788.389,-241.845 739.813,-220.351"/>
<polygon fill="black" stroke="black" points="740.934,-217.023 730.364,-216.307 738.18,-223.459 740.934,-217.023"/>
</g>
<!-- metaflow_preproc_despike -->
<g id="node5" class="node"><title>metaflow_preproc_despike</title>
<ellipse fill="#e6e6ff" stroke="black" cx="201" cy="-780" rx="59.5901" ry="18"/>
<text text-anchor="middle" x="201" y="-776.3" font-family="Times,serif" font-size="14.00">despike (afni)</text>
</g>
<!-- metaflow_selectfiles&#45;&gt;metaflow_preproc_despike -->
<g id="edge43" class="edge"><title>metaflow_selectfiles&#45;&gt;metaflow_preproc_despike</title>
<path fill="none" stroke="black" d="M228.65,-837.069C224.243,-828.132 218.74,-816.972 213.806,-806.968"/>
<polygon fill="black" stroke="black" points="216.866,-805.26 209.304,-797.839 210.588,-808.356 216.866,-805.26"/>
</g>
<!-- metaflow_l1analysis_modelspec -->
<g id="node16" class="node"><title>metaflow_l1analysis_modelspec</title>
<ellipse fill="#e6e6ff" stroke="black" cx="697" cy="-417" rx="92.0841" ry="18"/>
<text text-anchor="middle" x="697" y="-413.3" font-family="Times,serif" font-size="14.00">modelspec (modelgen)</text>
</g>
<!-- metaflow_getsubjectinfo&#45;&gt;metaflow_l1analysis_modelspec -->
<g id="edge44" class="edge"><title>metaflow_getsubjectinfo&#45;&gt;metaflow_l1analysis_modelspec</title>
<path fill="none" stroke="black" d="M640.142,-837.086C657.674,-810.953 688,-758.583 688,-709 688,-709 688,-709 688,-563 688,-522.072 691.616,-474.771 694.264,-445.62"/>
<polygon fill="black" stroke="black" points="697.775,-445.671 695.222,-435.388 690.805,-445.018 697.775,-445.671"/>
</g>
<!-- metaflow_datasink -->
<g id="node4" class="node"><title>metaflow_datasink</title>
<ellipse fill="#ffffc8" stroke="black" cx="532" cy="-129" rx="55.4913" ry="18"/>
<text text-anchor="middle" x="532" y="-125.3" font-family="Times,serif" font-size="14.00">datasink (io)</text>
</g>
<!-- metaflow_preproc_sliceTiming -->
<g id="node6" class="node"><title>metaflow_preproc_sliceTiming</title>
<ellipse fill="#e6e6ff" stroke="black" cx="191" cy="-708" rx="76.8869" ry="18"/>
<text text-anchor="middle" x="191" y="-704.3" font-family="Times,serif" font-size="14.00">sliceTiming (spm)</text>
</g>
<!-- metaflow_preproc_despike&#45;&gt;metaflow_preproc_sliceTiming -->
<g id="edge3" class="edge"><title>metaflow_preproc_despike&#45;&gt;metaflow_preproc_sliceTiming</title>
<path fill="none" stroke="#0000ff" d="M198.528,-761.697C197.426,-753.983 196.102,-744.712 194.873,-736.112"/>
<polygon fill="#0000ff" stroke="#0000ff" points="198.323,-735.509 193.443,-726.104 191.393,-736.499 198.323,-735.509"/>
</g>
<!-- metaflow_preproc_realign -->
<g id="node7" class="node"><title>metaflow_preproc_realign</title>
<ellipse fill="#e6e6ff" stroke="black" cx="182" cy="-636" rx="58.4896" ry="18"/>
<text text-anchor="middle" x="182" y="-632.3" font-family="Times,serif" font-size="14.00">realign (spm)</text>
</g>
<!-- metaflow_preproc_sliceTiming&#45;&gt;metaflow_preproc_realign -->
<g id="edge4" class="edge"><title>metaflow_preproc_sliceTiming&#45;&gt;metaflow_preproc_realign</title>
<path fill="none" stroke="#0000ff" d="M188.775,-689.697C187.783,-681.983 186.592,-672.712 185.486,-664.112"/>
<polygon fill="#0000ff" stroke="#0000ff" points="188.946,-663.576 184.199,-654.104 182.003,-664.469 188.946,-663.576"/>
</g>
<!-- metaflow_preproc_realign&#45;&gt;metaflow_datasink -->
<g id="edge35" class="edge"><title>metaflow_preproc_realign&#45;&gt;metaflow_datasink</title>
<path fill="none" stroke="black" d="M133.863,-625.612C105.626,-617.694 71.0627,-604.04 47,-582 14.0133,-551.786 0,-537.732 0,-493 0,-493 0,-493 0,-272 0,-176.999 325.457,-143.516 467.314,-133.613"/>
<polygon fill="black" stroke="black" points="467.871,-137.083 477.611,-132.913 467.396,-130.099 467.871,-137.083"/>
</g>
<!-- metaflow_preproc_realign&#45;&gt;metaflow_datasink -->
<g id="edge36" class="edge"><title>metaflow_preproc_realign&#45;&gt;metaflow_datasink</title>
<path fill="none" stroke="black" d="M141.038,-623.012C116.697,-614.826 86.6126,-601.796 65,-582 32.0133,-551.786 18,-537.732 18,-493 18,-493 18,-493 18,-272 18,-178.949 330.23,-144.917 468.045,-134.253"/>
<polygon fill="black" stroke="black" points="468.349,-137.74 478.057,-133.495 467.821,-130.76 468.349,-137.74"/>
</g>
<!-- metaflow_preproc_tsnr -->
<g id="node9" class="node"><title>metaflow_preproc_tsnr</title>
<ellipse fill="#e6e6ff" stroke="black" cx="114" cy="-564" rx="49.2915" ry="18"/>
<text text-anchor="middle" x="114" y="-560.3" font-family="Times,serif" font-size="14.00">tsnr (misc)</text>
</g>
<!-- metaflow_preproc_realign&#45;&gt;metaflow_preproc_tsnr -->
<g id="edge7" class="edge"><title>metaflow_preproc_realign&#45;&gt;metaflow_preproc_tsnr</title>
<path fill="none" stroke="#0000ff" d="M165.885,-618.411C157.332,-609.606 146.667,-598.628 137.236,-588.919"/>
<polygon fill="#0000ff" stroke="#0000ff" points="139.478,-586.204 129.999,-581.47 134.457,-591.082 139.478,-586.204"/>
</g>
<!-- metaflow_preproc_art -->
<g id="node10" class="node"><title>metaflow_preproc_art</title>
<ellipse fill="#e6e6ff" stroke="black" cx="240" cy="-492" rx="55.7903" ry="18"/>
<text text-anchor="middle" x="240" y="-488.3" font-family="Times,serif" font-size="14.00">art (rapidart)</text>
</g>
<!-- metaflow_preproc_realign&#45;&gt;metaflow_preproc_art -->
<g id="edge8" class="edge"><title>metaflow_preproc_realign&#45;&gt;metaflow_preproc_art</title>
<path fill="none" stroke="#0000ff" d="M175.687,-617.852C174.24,-599.358 177.421,-569.419 188,-546 192.905,-535.143 200.59,-524.638 208.66,-515.884"/>
<polygon fill="#0000ff" stroke="#0000ff" points="211.245,-518.247 215.791,-508.677 206.269,-513.324 211.245,-518.247"/>
</g>
<!-- metaflow_preproc_realign&#45;&gt;metaflow_preproc_art -->
<g id="edge9" class="edge"><title>metaflow_preproc_realign&#45;&gt;metaflow_preproc_art</title>
<path fill="none" stroke="#0000ff" d="M188.954,-617.852C192.24,-599.358 195.421,-569.419 206,-546 210.536,-535.958 217.452,-526.217 223.987,-517.884"/>
<polygon fill="#0000ff" stroke="#0000ff" points="226.742,-520.044 230.294,-510.062 221.293,-515.65 226.742,-520.044"/>
</g>
<!-- metaflow_preproc_realign&#45;&gt;metaflow_preproc_bbregister -->
<g id="edge5" class="edge"><title>metaflow_preproc_realign&#45;&gt;metaflow_preproc_bbregister</title>
<path fill="none" stroke="#0000ff" d="M224.273,-623.441C266.037,-612.021 330.335,-594.44 377.503,-581.542"/>
<polygon fill="#0000ff" stroke="#0000ff" points="378.571,-584.879 387.294,-578.865 376.725,-578.127 378.571,-584.879"/>
</g>
<!-- metaflow_preproc_applyVolTrans -->
<g id="node13" class="node"><title>metaflow_preproc_applyVolTrans</title>
<ellipse fill="#e6e6ff" stroke="black" cx="420" cy="-492" rx="105.881" ry="18"/>
<text text-anchor="middle" x="420" y="-488.3" font-family="Times,serif" font-size="14.00">applyVolTrans (freesurfer)</text>
</g>
<!-- metaflow_preproc_realign&#45;&gt;metaflow_preproc_applyVolTrans -->
<g id="edge6" class="edge"><title>metaflow_preproc_realign&#45;&gt;metaflow_preproc_applyVolTrans</title>
<path fill="none" stroke="#0000ff" d="M186.823,-617.851C193.833,-593.43 206.589,-551.016 212,-546 230.088,-529.23 285.089,-515.632 333.989,-506.409"/>
<polygon fill="#0000ff" stroke="#0000ff" points="334.795,-509.82 343.995,-504.566 333.527,-502.936 334.795,-509.82"/>
</g>
<!-- metaflow_preproc_realign&#45;&gt;metaflow_l1analysis_modelspec -->
<g id="edge30" class="edge"><title>metaflow_preproc_realign&#45;&gt;metaflow_l1analysis_modelspec</title>
<path fill="none" stroke="black" d="M238.352,-630.883C324.486,-623.868 484.245,-607.8 535,-582 599.736,-549.093 654.091,-480.442 680.257,-443.25"/>
<polygon fill="black" stroke="black" points="683.19,-445.162 685.998,-434.946 677.432,-441.181 683.19,-445.162"/>
</g>
<!-- metaflow_preproc_fssource&#45;&gt;metaflow_preproc_applyVolTrans -->
<g id="edge10" class="edge"><title>metaflow_preproc_fssource&#45;&gt;metaflow_preproc_applyVolTrans</title>
<path fill="none" stroke="#0000ff" d="M305.488,-548.666C326.244,-538.576 354.343,-524.917 377.511,-513.654"/>
<polygon fill="#0000ff" stroke="#0000ff" points="379.311,-516.671 386.775,-509.151 376.251,-510.375 379.311,-516.671"/>
</g>
<!-- metaflow_preproc_tsnr&#45;&gt;metaflow_preproc_art -->
<g id="edge11" class="edge"><title>metaflow_preproc_tsnr&#45;&gt;metaflow_preproc_art</title>
<path fill="none" stroke="#0000ff" d="M140.107,-548.496C158.61,-538.217 183.668,-524.296 204.057,-512.968"/>
<polygon fill="#0000ff" stroke="#0000ff" points="206.015,-515.884 213.057,-507.968 202.615,-509.765 206.015,-515.884"/>
</g>
<!-- metaflow_preproc_gunzip -->
<g id="node11" class="node"><title>metaflow_preproc_gunzip</title>
<ellipse fill="#e6e6ff" stroke="black" cx="106" cy="-492" rx="59.5901" ry="18"/>
<text text-anchor="middle" x="106" y="-488.3" font-family="Times,serif" font-size="14.00">gunzip (misc)</text>
</g>
<!-- metaflow_preproc_tsnr&#45;&gt;metaflow_preproc_gunzip -->
<g id="edge12" class="edge"><title>metaflow_preproc_tsnr&#45;&gt;metaflow_preproc_gunzip</title>
<path fill="none" stroke="#0000ff" d="M112.022,-545.697C111.141,-537.983 110.081,-528.712 109.099,-520.112"/>
<polygon fill="#0000ff" stroke="#0000ff" points="112.568,-519.642 107.955,-510.104 105.613,-520.437 112.568,-519.642"/>
</g>
<!-- metaflow_preproc_art&#45;&gt;metaflow_datasink -->
<g id="edge37" class="edge"><title>metaflow_preproc_art&#45;&gt;metaflow_datasink</title>
<path fill="none" stroke="black" d="M205.844,-477.664C201.238,-474.365 197.077,-470.47 194,-466 162.946,-420.89 166,-400.766 166,-346 166,-346 166,-346 166,-272 166,-207.447 370.078,-159.334 473.528,-139.703"/>
<polygon fill="black" stroke="black" points="474.329,-143.113 483.516,-137.837 473.044,-136.233 474.329,-143.113"/>
</g>
<!-- metaflow_preproc_art&#45;&gt;metaflow_datasink -->
<g id="edge38" class="edge"><title>metaflow_preproc_art&#45;&gt;metaflow_datasink</title>
<path fill="none" stroke="black" d="M220.239,-475.001C217.17,-472.324 214.286,-469.321 212,-466 180.946,-420.89 184,-400.766 184,-346 184,-346 184,-346 184,-272 184,-209.108 377.715,-161.82 476.156,-141.274"/>
<polygon fill="black" stroke="black" points="477.151,-144.642 486.237,-139.193 475.736,-137.787 477.151,-144.642"/>
</g>
<!-- metaflow_preproc_art&#45;&gt;metaflow_l1analysis_modelspec -->
<g id="edge32" class="edge"><title>metaflow_preproc_art&#45;&gt;metaflow_l1analysis_modelspec</title>
<path fill="none" stroke="black" d="M279.588,-479.159C287.913,-477.09 296.69,-475.214 305,-474 407.528,-459.022 435.77,-482.892 538,-466 575.351,-459.828 616.211,-447.362 647.156,-436.681"/>
<polygon fill="black" stroke="black" points="648.56,-439.898 656.838,-433.286 646.244,-433.292 648.56,-439.898"/>
</g>
<!-- metaflow_preproc_smooth -->
<g id="node14" class="node"><title>metaflow_preproc_smooth</title>
<ellipse fill="#e6e6ff" stroke="black" cx="272" cy="-417" rx="60.3893" ry="18"/>
<text text-anchor="middle" x="272" y="-413.3" font-family="Times,serif" font-size="14.00">smooth (spm)</text>
</g>
<!-- metaflow_preproc_gunzip&#45;&gt;metaflow_preproc_smooth -->
<g id="edge13" class="edge"><title>metaflow_preproc_gunzip&#45;&gt;metaflow_preproc_smooth</title>
<path fill="none" stroke="#0000ff" d="M138.401,-476.752C164.679,-465.195 201.902,-448.826 230.385,-436.301"/>
<polygon fill="#0000ff" stroke="#0000ff" points="231.936,-439.442 239.681,-432.212 229.118,-433.034 231.936,-439.442"/>
</g>
<!-- metaflow_preproc_bbregister&#45;&gt;metaflow_datasink -->
<g id="edge40" class="edge"><title>metaflow_preproc_bbregister&#45;&gt;metaflow_datasink</title>
<path fill="none" stroke="black" d="M469.722,-547.165C486.4,-538.877 505.27,-526.853 517,-510 559.081,-449.537 541,-419.665 541,-346 541,-346 541,-346 541,-272 541,-231.502 530.27,-185.632 526.848,-157.258"/>
<polygon fill="black" stroke="black" points="530.332,-156.925 525.932,-147.287 523.362,-157.566 530.332,-156.925"/>
</g>
<!-- metaflow_preproc_bbregister&#45;&gt;metaflow_datasink -->
<g id="edge41" class="edge"><title>metaflow_preproc_bbregister&#45;&gt;metaflow_datasink</title>
<path fill="none" stroke="black" d="M483.391,-548.524C502.262,-540.211 522.613,-527.799 535,-510 577.081,-449.537 559,-419.665 559,-346 559,-346 559,-346 559,-272 559,-231.502 548.27,-185.632 540.338,-157.258"/>
<polygon fill="black" stroke="black" points="543.597,-155.926 537.464,-147.287 536.871,-157.865 543.597,-155.926"/>
</g>
<!-- metaflow_preproc_bbregister&#45;&gt;metaflow_datasink -->
<g id="edge42" class="edge"><title>metaflow_preproc_bbregister&#45;&gt;metaflow_datasink</title>
<path fill="none" stroke="black" d="M495.508,-550.228C517.34,-541.941 539.736,-529.059 553,-510 595.081,-449.537 577,-419.665 577,-346 577,-346 577,-346 577,-272 577,-230.696 565.839,-183.805 553.084,-155.585"/>
<polygon fill="black" stroke="black" points="556.112,-153.814 548.522,-146.422 549.846,-156.934 556.112,-153.814"/>
</g>
<!-- metaflow_preproc_bbregister&#45;&gt;metaflow_preproc_applyVolTrans -->
<g id="edge14" class="edge"><title>metaflow_preproc_bbregister&#45;&gt;metaflow_preproc_applyVolTrans</title>
<path fill="none" stroke="#0000ff" d="M433.551,-545.697C431.545,-537.898 429.131,-528.509 426.899,-519.829"/>
<polygon fill="#0000ff" stroke="#0000ff" points="430.278,-518.918 424.398,-510.104 423.499,-520.661 430.278,-518.918"/>
</g>
<!-- metaflow_l1analysis_applyVolReg -->
<g id="node20" class="node"><title>metaflow_l1analysis_applyVolReg</title>
<ellipse fill="#e6e6ff" stroke="black" cx="705" cy="-129" rx="100.182" ry="18"/>
<text text-anchor="middle" x="705" y="-125.3" font-family="Times,serif" font-size="14.00">applyVolReg (freesurfer)</text>
</g>
<!-- metaflow_preproc_bbregister&#45;&gt;metaflow_l1analysis_applyVolReg -->
<g id="edge34" class="edge"><title>metaflow_preproc_bbregister&#45;&gt;metaflow_l1analysis_applyVolReg</title>
<path fill="none" stroke="black" d="M525.39,-560.935C605.456,-554.542 722.656,-533.229 798,-466 815.119,-450.724 817,-440.944 817,-418 817,-418 817,-418 817,-272 817,-228.449 803.406,-216.847 776,-183 766.497,-171.264 753.842,-160.735 741.849,-152.213"/>
<polygon fill="black" stroke="black" points="743.521,-149.117 733.288,-146.374 739.577,-154.9 743.521,-149.117"/>
</g>
<!-- metaflow_preproc_binarize -->
<g id="node15" class="node"><title>metaflow_preproc_binarize</title>
<ellipse fill="#e6e6ff" stroke="black" cx="432" cy="-417" rx="81.4863" ry="18"/>
<text text-anchor="middle" x="432" y="-413.3" font-family="Times,serif" font-size="14.00">binarize (freesurfer)</text>
</g>
<!-- metaflow_preproc_applyVolTrans&#45;&gt;metaflow_preproc_binarize -->
<g id="edge15" class="edge"><title>metaflow_preproc_applyVolTrans&#45;&gt;metaflow_preproc_binarize</title>
<path fill="none" stroke="#0000ff" d="M422.844,-473.7C424.249,-465.154 425.976,-454.645 427.551,-445.067"/>
<polygon fill="#0000ff" stroke="#0000ff" points="431.008,-445.611 429.177,-435.176 424.101,-444.476 431.008,-445.611"/>
</g>
<!-- metaflow_preproc_smooth&#45;&gt;metaflow_l1analysis_modelspec -->
<g id="edge31" class="edge"><title>metaflow_preproc_smooth&#45;&gt;metaflow_l1analysis_modelspec</title>
<path fill="none" stroke="black" d="M289.25,-434.36C304.115,-447.775 326.927,-464.891 351,-470 376.108,-475.328 556.892,-475.328 582,-470 609.472,-464.17 638.164,-450.96 660.016,-439.188"/>
<polygon fill="black" stroke="black" points="661.88,-442.157 668.939,-434.256 658.494,-436.03 661.88,-442.157"/>
</g>
<!-- metaflow_preproc_binarize&#45;&gt;metaflow_datasink -->
<g id="edge39" class="edge"><title>metaflow_preproc_binarize&#45;&gt;metaflow_datasink</title>
<path fill="none" stroke="black" d="M437.956,-398.966C454.735,-350.979 502.484,-214.414 522.737,-156.491"/>
<polygon fill="black" stroke="black" points="526.078,-157.54 526.075,-146.945 519.471,-155.229 526.078,-157.54"/>
</g>
<!-- metaflow_l1analysis_level1design -->
<g id="node17" class="node"><title>metaflow_l1analysis_level1design</title>
<ellipse fill="#e6e6ff" stroke="black" cx="690" cy="-345" rx="78.7863" ry="18"/>
<text text-anchor="middle" x="690" y="-341.3" font-family="Times,serif" font-size="14.00">level1design (spm)</text>
</g>
<!-- metaflow_preproc_binarize&#45;&gt;metaflow_l1analysis_level1design -->
<g id="edge33" class="edge"><title>metaflow_preproc_binarize&#45;&gt;metaflow_l1analysis_level1design</title>
<path fill="none" stroke="black" d="M481.44,-402.586C524.243,-390.973 586.219,-374.158 631.485,-361.876"/>
<polygon fill="black" stroke="black" points="632.431,-365.246 641.165,-359.25 630.598,-358.49 632.431,-365.246"/>
</g>
<!-- metaflow_l1analysis_modelspec&#45;&gt;metaflow_l1analysis_level1design -->
<g id="edge16" class="edge"><title>metaflow_l1analysis_modelspec&#45;&gt;metaflow_l1analysis_level1design</title>
<path fill="none" stroke="#0000ff" d="M695.27,-398.697C694.498,-390.983 693.571,-381.712 692.711,-373.112"/>
<polygon fill="#0000ff" stroke="#0000ff" points="696.188,-372.706 691.71,-363.104 689.223,-373.403 696.188,-372.706"/>
</g>
<!-- metaflow_l1analysis_level1estimate -->
<g id="node18" class="node"><title>metaflow_l1analysis_level1estimate</title>
<ellipse fill="#e6e6ff" stroke="black" cx="690" cy="-273" rx="85.2851" ry="18"/>
<text text-anchor="middle" x="690" y="-269.3" font-family="Times,serif" font-size="14.00">level1estimate (spm)</text>
</g>
<!-- metaflow_l1analysis_level1design&#45;&gt;metaflow_l1analysis_level1estimate -->
<g id="edge17" class="edge"><title>metaflow_l1analysis_level1design&#45;&gt;metaflow_l1analysis_level1estimate</title>
<path fill="none" stroke="#0000ff" d="M690,-326.697C690,-318.983 690,-309.712 690,-301.112"/>
<polygon fill="#0000ff" stroke="#0000ff" points="693.5,-301.104 690,-291.104 686.5,-301.104 693.5,-301.104"/>
</g>
<!-- metaflow_l1analysis_level1estimate&#45;&gt;metaflow_l1analysis_conestimate -->
<g id="edge18" class="edge"><title>metaflow_l1analysis_level1estimate&#45;&gt;metaflow_l1analysis_conestimate</title>
<path fill="none" stroke="#0000ff" d="M678.244,-255.055C676.565,-247.145 676.098,-237.54 676.844,-228.688"/>
<polygon fill="#0000ff" stroke="#0000ff" points="680.308,-229.187 678.277,-218.789 673.381,-228.185 680.308,-229.187"/>
</g>
<!-- metaflow_l1analysis_level1estimate&#45;&gt;metaflow_l1analysis_conestimate -->
<g id="edge19" class="edge"><title>metaflow_l1analysis_level1estimate&#45;&gt;metaflow_l1analysis_conestimate</title>
<path fill="none" stroke="#0000ff" d="M690,-254.697C690,-246.983 690,-237.712 690,-229.112"/>
<polygon fill="#0000ff" stroke="#0000ff" points="693.5,-229.104 690,-219.104 686.5,-229.104 693.5,-229.104"/>
</g>
<!-- metaflow_l1analysis_level1estimate&#45;&gt;metaflow_l1analysis_conestimate -->
<g id="edge20" class="edge"><title>metaflow_l1analysis_level1estimate&#45;&gt;metaflow_l1analysis_conestimate</title>
<path fill="none" stroke="#0000ff" d="M701.756,-255.055C703.435,-247.145 703.902,-237.54 703.156,-228.688"/>
<polygon fill="#0000ff" stroke="#0000ff" points="706.619,-228.185 701.723,-218.789 699.692,-229.187 706.619,-228.185"/>
</g>
<!-- metaflow_l1analysis_conestimate&#45;&gt;metaflow_datasink -->
<g id="edge27" class="edge"><title>metaflow_l1analysis_conestimate&#45;&gt;metaflow_datasink</title>
<path fill="none" stroke="black" d="M647.353,-186.003C621.21,-175.647 588.632,-161.399 564.532,-149.867"/>
<polygon fill="black" stroke="black" points="565.942,-146.66 555.419,-145.433 562.88,-152.955 565.942,-146.66"/>
</g>
<!-- metaflow_l1analysis_conestimate&#45;&gt;metaflow_datasink -->
<g id="edge28" class="edge"><title>metaflow_l1analysis_conestimate&#45;&gt;metaflow_datasink</title>
<path fill="none" stroke="black" d="M655.716,-184.811C631.331,-174.008 598.471,-159.449 572.745,-148.052"/>
<polygon fill="black" stroke="black" points="573.828,-144.703 563.267,-143.853 570.992,-151.103 573.828,-144.703"/>
</g>
<!-- metaflow_l1analysis_conestimate&#45;&gt;metaflow_datasink -->
<g id="edge29" class="edge"><title>metaflow_l1analysis_conestimate&#45;&gt;metaflow_datasink</title>
<path fill="none" stroke="black" d="M665.313,-183.941C642.128,-172.517 607.635,-157.242 579.322,-145.863"/>
<polygon fill="black" stroke="black" points="580.568,-142.592 569.982,-142.165 577.991,-149.101 580.568,-142.592"/>
</g>
<!-- metaflow_l1analysis_conestimate&#45;&gt;metaflow_l1analysis_applyVolReg -->
<g id="edge21" class="edge"><title>metaflow_l1analysis_conestimate&#45;&gt;metaflow_l1analysis_applyVolReg</title>
<path fill="none" stroke="#0000ff" d="M693.708,-182.697C695.361,-174.983 697.347,-165.712 699.19,-157.112"/>
<polygon fill="#0000ff" stroke="#0000ff" points="702.662,-157.616 701.335,-147.104 695.817,-156.149 702.662,-157.616"/>
</g>
<!-- metaflow_l1analysis_mriconvert -->
<g id="node21" class="node"><title>metaflow_l1analysis_mriconvert</title>
<ellipse fill="#e6e6ff" stroke="black" cx="701" cy="-57" rx="92.0841" ry="18"/>
<text text-anchor="middle" x="701" y="-53.3" font-family="Times,serif" font-size="14.00">mriconvert (freesurfer)</text>
</g>
<!-- metaflow_l1analysis_applyVolReg&#45;&gt;metaflow_l1analysis_mriconvert -->
<g id="edge22" class="edge"><title>metaflow_l1analysis_applyVolReg&#45;&gt;metaflow_l1analysis_mriconvert</title>
<path fill="none" stroke="#0000ff" d="M704.011,-110.697C703.57,-102.983 703.041,-93.7125 702.549,-85.1124"/>
<polygon fill="#0000ff" stroke="#0000ff" points="706.042,-84.8883 701.977,-75.1043 699.054,-85.2878 706.042,-84.8883"/>
</g>
<!-- metaflow_l1analysis_mriconvert&#45;&gt;metaflow_datasink -->
<g id="edge26" class="edge"><title>metaflow_l1analysis_mriconvert&#45;&gt;metaflow_datasink</title>
<path fill="none" stroke="black" d="M663.384,-73.5808C636.994,-84.5113 601.679,-99.1389 574.308,-110.476"/>
<polygon fill="black" stroke="black" points="572.886,-107.277 564.986,-114.337 575.564,-113.744 572.886,-107.277"/>
</g>
</g>
</svg>
