<?xml version="1.0" encoding="UTF-8" standalone="no"?>
<!DOCTYPE svg PUBLIC "-//W3C//DTD SVG 1.1//EN"
 "http://www.w3.org/Graphics/SVG/1.1/DTD/svg11.dtd">
<!-- Generated by graphviz version 2.36.0 (20140111.2315)
 -->
<!-- Title: %3 Pages: 1 -->
<svg width="651pt" height="332pt"
 viewBox="0.00 0.00 650.80 332.00" xmlns="http://www.w3.org/2000/svg" xmlns:xlink="http://www.w3.org/1999/xlink">
<g id="graph0" class="graph" transform="scale(1 1) rotate(0) translate(4 328)">
<title>%3</title>
<polygon fill="white" stroke="none" points="-4,4 -4,-328 646.802,-328 646.802,4 -4,4"/>
<!-- metaflow.preproc -->
<g id="node1" class="node"><title>metaflow.preproc</title>
<ellipse fill="none" stroke="black" cx="155.802" cy="-162" rx="73.1654" ry="18"/>
<text text-anchor="middle" x="155.802" y="-158.3" font-family="Times,serif" font-size="14.00">metaflow.preproc</text>
</g>
<!-- metaflow.datasink.DataSink.io -->
<g id="node2" class="node"><title>metaflow.datasink.DataSink.io</title>
<ellipse fill="none" stroke="black" cx="225.802" cy="-18" rx="120.359" ry="18"/>
<text text-anchor="middle" x="225.802" y="-14.3" font-family="Times,serif" font-size="14.00">metaflow.datasink.DataSink.io</text>
</g>
<!-- metaflow.preproc&#45;&gt;metaflow.datasink.DataSink.io -->
<g id="edge1" class="edge"><title>metaflow.preproc&#45;&gt;metaflow.datasink.DataSink.io</title>
<path fill="none" stroke="black" d="M161.96,-143.898C168.731,-125.701 180.317,-96.2503 192.802,-72 197.466,-62.9412 203.154,-53.3891 208.485,-44.9274"/>
<polygon fill="black" stroke="black" points="211.601,-46.5528 214.065,-36.2485 205.713,-42.7673 211.601,-46.5528"/>
</g>
<!-- metaflow.l1analysis -->
<g id="node3" class="node"><title>metaflow.l1analysis</title>
<ellipse fill="none" stroke="black" cx="283.802" cy="-90" rx="81.3398" ry="18"/>
<text text-anchor="middle" x="283.802" y="-86.3" font-family="Times,serif" font-size="14.00">metaflow.l1analysis</text>
</g>
<!-- metaflow.preproc&#45;&gt;metaflow.l1analysis -->
<g id="edge2" class="edge"><title>metaflow.preproc&#45;&gt;metaflow.l1analysis</title>
<path fill="none" stroke="black" d="M184.528,-145.291C202.599,-135.408 226.127,-122.541 245.742,-111.814"/>
<polygon fill="black" stroke="black" points="247.635,-114.768 254.73,-106.899 244.276,-108.626 247.635,-114.768"/>
</g>
<!-- metaflow.l1analysis&#45;&gt;metaflow.datasink.DataSink.io -->
<g id="edge4" class="edge"><title>metaflow.l1analysis&#45;&gt;metaflow.datasink.DataSink.io</title>
<path fill="none" stroke="black" d="M269.762,-72.055C262.813,-63.6679 254.285,-53.376 246.596,-44.0963"/>
<polygon fill="black" stroke="black" points="249.191,-41.7425 240.116,-36.2753 243.801,-46.2086 249.191,-41.7425"/>
</g>
<!-- metaflow.selectfiles.SelectFiles.io -->
<g id="node4" class="node"><title>metaflow.selectfiles.SelectFiles.io</title>
<ellipse fill="none" stroke="black" cx="148.802" cy="-234" rx="131.408" ry="18"/>
<text text-anchor="middle" x="148.802" y="-230.3" font-family="Times,serif" font-size="14.00">metaflow.selectfiles.SelectFiles.io</text>
</g>
<!-- metaflow.selectfiles.SelectFiles.io&#45;&gt;metaflow.preproc -->
<g id="edge3" class="edge"><title>metaflow.selectfiles.SelectFiles.io&#45;&gt;metaflow.preproc</title>
<path fill="none" stroke="black" d="M150.533,-215.697C151.304,-207.983 152.231,-198.712 153.091,-190.112"/>
<polygon fill="black" stroke="black" points="156.579,-190.403 154.092,-180.104 149.614,-189.706 156.579,-190.403"/>
</g>
<!-- metaflow.getsubjectinfo.Function.utility -->
<g id="node5" class="node"><title>metaflow.getsubjectinfo.Function.utility</title>
<ellipse fill="none" stroke="black" cx="489.802" cy="-162" rx="153.08" ry="18"/>
<text text-anchor="middle" x="489.802" y="-158.3" font-family="Times,serif" font-size="14.00">metaflow.getsubjectinfo.Function.utility</text>
</g>
<!-- metaflow.getsubjectinfo.Function.utility&#45;&gt;metaflow.l1analysis -->
<g id="edge5" class="edge"><title>metaflow.getsubjectinfo.Function.utility&#45;&gt;metaflow.l1analysis</title>
<path fill="none" stroke="black" d="M442.283,-144.853C410.517,-134.058 368.715,-119.854 336.019,-108.744"/>
<polygon fill="black" stroke="black" points="336.78,-105.306 326.186,-105.402 334.528,-111.933 336.78,-105.306"/>
</g>
<!-- metaflow.infosource.IdentityInterface.utility -->
<g id="node6" class="node"><title>metaflow.infosource.IdentityInterface.utility</title>
<ellipse fill="none" stroke="black" cx="228.802" cy="-306" rx="168.003" ry="18"/>
<text text-anchor="middle" x="228.802" y="-302.3" font-family="Times,serif" font-size="14.00">metaflow.infosource.IdentityInterface.utility</text>
</g>
<!-- metaflow.infosource.IdentityInterface.utility&#45;&gt;metaflow.preproc -->
<g id="edge6" class="edge"><title>metaflow.infosource.IdentityInterface.utility&#45;&gt;metaflow.preproc</title>
<path fill="none" stroke="black" d="M122.183,-292.07C73.1787,-283.716 22.6439,-270.822 7.8022,-252 -20.888,-215.616 38.9949,-190.727 90.968,-176.713"/>
<polygon fill="black" stroke="black" points="92.0915,-180.037 100.892,-174.139 90.334,-173.262 92.0915,-180.037"/>
</g>
<!-- metaflow.infosource.IdentityInterface.utility&#45;&gt;metaflow.l1analysis -->
<g id="edge8" class="edge"><title>metaflow.infosource.IdentityInterface.utility&#45;&gt;metaflow.l1analysis</title>
<path fill="none" stroke="black" d="M256.748,-288.203C269.01,-279.168 282.118,-266.824 288.802,-252 308.407,-208.524 299.672,-151.522 291.656,-118.31"/>
<polygon fill="black" stroke="black" points="294.991,-117.227 289.115,-108.411 288.211,-118.967 294.991,-117.227"/>
</g>
<!-- metaflow.infosource.IdentityInterface.utility&#45;&gt;metaflow.selectfiles.SelectFiles.io -->
<g id="edge7" class="edge"><title>metaflow.infosource.IdentityInterface.utility&#45;&gt;metaflow.selectfiles.SelectFiles.io</title>
<path fill="none" stroke="black" d="M209.436,-288.055C199.389,-279.264 186.951,-268.38 175.96,-258.763"/>
<polygon fill="black" stroke="black" points="178.097,-255.983 168.267,-252.032 173.488,-261.251 178.097,-255.983"/>
</g>
<!-- metaflow.infosource.IdentityInterface.utility&#45;&gt;metaflow.getsubjectinfo.Function.utility -->
<g id="edge9" class="edge"><title>metaflow.infosource.IdentityInterface.utility&#45;&gt;metaflow.getsubjectinfo.Function.utility</title>
<path fill="none" stroke="black" d="M259.51,-288.293C306.925,-262.496 397.939,-212.979 450.229,-184.53"/>
<polygon fill="black" stroke="black" points="452.1,-187.497 459.212,-179.643 448.755,-181.348 452.1,-187.497"/>
</g>
</g>
</svg>
