<?xml version="1.0" encoding="UTF-8" standalone="no"?>
<!DOCTYPE svg PUBLIC "-//W3C//DTD SVG 1.1//EN"
 "http://www.w3.org/Graphics/SVG/1.1/DTD/svg11.dtd">
<!-- Generated by graphviz version 2.36.0 (20140111.2315)
 -->
<!-- Title: %3 Pages: 1 -->
<svg width="784pt" height="1399pt"
 viewBox="0.00 0.00 784.00 1399.00" xmlns="http://www.w3.org/2000/svg" xmlns:xlink="http://www.w3.org/1999/xlink">
<g id="graph0" class="graph" transform="scale(1 1) rotate(0) translate(4 1395)">
<title>%3</title>
<polygon fill="white" stroke="none" points="-4,4 -4,-1395 780,-1395 780,4 -4,4"/>
<g id="clust1" class="cluster"><title>cluster_structuralflow</title>
<polygon fill="#b4b4ff" stroke="black" points="502,-296 502,-651 768,-651 768,-296 502,-296"/>
<text text-anchor="middle" x="635" y="-635.8" font-family="Times,serif" font-size="14.00">sMRI</text>
</g>
<g id="clust2" class="cluster"><title>cluster_anatomy_preproc</title>
<polygon fill="#ffb4b4" stroke="black" points="518,-501 518,-576 744,-576 744,-501 518,-501"/>
<text text-anchor="middle" x="631" y="-560.8" font-family="Times,serif" font-size="14.00">Preprocessing</text>
</g>
<g id="clust3" class="cluster"><title>cluster_anatomy_analysis</title>
<polygon fill="#b4ffb4" stroke="black" points="510,-304 510,-493 760,-493 760,-304 510,-304"/>
<text text-anchor="middle" x="635" y="-477.8" font-family="Times,serif" font-size="14.00">2nd level analysis</text>
</g>
<g id="clust4" class="cluster"><title>cluster_anatomy_1st</title>
<polygon fill="#ffff8f" stroke="black" points="518,-312 518,-462 752,-462 752,-312 518,-312"/>
<text text-anchor="middle" x="635" y="-446.8" font-family="Times,serif" font-size="14.00">ROI analysis</text>
</g>
<g id="clust5" class="cluster"><title>cluster_functionalflow</title>
<polygon fill="#b4b4ff" stroke="black" points="8,-8 8,-1275 494,-1275 494,-8 8,-8"/>
<text text-anchor="middle" x="251" y="-1259.8" font-family="Times,serif" font-size="14.00">fMRI</text>
</g>
<g id="clust6" class="cluster"><title>cluster_functional_preproc</title>
<polygon fill="#ffb4b4" stroke="black" points="69,-909 69,-1200 287,-1200 287,-909 69,-909"/>
<text text-anchor="middle" x="178" y="-1184.8" font-family="Times,serif" font-size="14.00">Preprocessing</text>
</g>
<g id="clust7" class="cluster"><title>cluster_functional_analysis</title>
<polygon fill="#b4ffb4" stroke="black" points="16,-16 16,-901 486,-901 486,-16 16,-16"/>
<text text-anchor="middle" x="251" y="-885.8" font-family="Times,serif" font-size="14.00">functioanl analysis</text>
</g>
<g id="clust8" class="cluster"><title>cluster_functional_1st</title>
<polygon fill="#ffff8f" stroke="black" points="24,-501 24,-870 256,-870 256,-501 24,-501"/>
<text text-anchor="middle" x="140" y="-854.8" font-family="Times,serif" font-size="14.00">1st level analysis</text>
</g>
<g id="clust9" class="cluster"><title>cluster_functional_2nd</title>
<polygon fill="#ffff8f" stroke="black" points="246,-24 246,-387 478,-387 478,-24 246,-24"/>
<text text-anchor="middle" x="362" y="-371.8" font-family="Times,serif" font-size="14.00">2nd level analysis</text>
</g>
<!-- brain -->
<g id="node1" class="node"><title>brain</title>
<ellipse fill="red" stroke="red" cx="458" cy="-1373" rx="59.2173" ry="18"/>
<text text-anchor="middle" x="458" y="-1369.3" font-family="Times,serif" font-size="14.00">Human Brain</text>
</g>
<!-- structuralData -->
<g id="node2" class="node"><title>structuralData</title>
<polygon fill="#d9d9d9" stroke="black" points="603.25,-1319 504.75,-1319 500.75,-1315 500.75,-1283 599.25,-1283 603.25,-1287 603.25,-1319"/>
<polyline fill="none" stroke="black" points="599.25,-1315 500.75,-1315 "/>
<polyline fill="none" stroke="black" points="599.25,-1315 599.25,-1283 "/>
<polyline fill="none" stroke="black" points="599.25,-1315 603.25,-1319 "/>
<text text-anchor="middle" x="552" y="-1297.3" font-family="Times,serif" font-size="14.00">anatomical data</text>
</g>
<!-- brain&#45;&gt;structuralData -->
<g id="edge14" class="edge"><title>brain&#45;&gt;structuralData</title>
<path fill="none" stroke="black" d="M479.33,-1356.12C491.621,-1346.96 507.291,-1335.29 520.93,-1325.14"/>
<polygon fill="black" stroke="black" points="523.182,-1327.82 529.112,-1319.04 519.001,-1322.21 523.182,-1327.82"/>
</g>
<!-- functionalData -->
<g id="node3" class="node"><title>functionalData</title>
<polygon fill="#d9d9d9" stroke="black" points="412.5,-1319 319.5,-1319 315.5,-1315 315.5,-1283 408.5,-1283 412.5,-1287 412.5,-1319"/>
<polyline fill="none" stroke="black" points="408.5,-1315 315.5,-1315 "/>
<polyline fill="none" stroke="black" points="408.5,-1315 408.5,-1283 "/>
<polyline fill="none" stroke="black" points="408.5,-1315 412.5,-1319 "/>
<text text-anchor="middle" x="364" y="-1297.3" font-family="Times,serif" font-size="14.00">functional data</text>
</g>
<!-- brain&#45;&gt;functionalData -->
<g id="edge16" class="edge"><title>brain&#45;&gt;functionalData</title>
<path fill="none" stroke="black" d="M436.67,-1356.12C424.379,-1346.96 408.709,-1335.29 395.07,-1325.14"/>
<polygon fill="black" stroke="black" points="396.999,-1322.21 386.888,-1319.04 392.818,-1327.82 396.999,-1322.21"/>
</g>
<!-- T1_image -->
<g id="node4" class="node"><title>T1_image</title>
<ellipse fill="#e6e6ff" stroke="black" cx="628" cy="-602" rx="117.459" ry="18"/>
<text text-anchor="middle" x="628" y="-598.3" font-family="Times,serif" font-size="14.00">NIfTi conversion (FreeSurfer)</text>
</g>
<!-- structuralData&#45;&gt;T1_image -->
<g id="edge15" class="edge"><title>structuralData&#45;&gt;T1_image</title>
<path fill="none" stroke="black" d="M555.471,-1282.77C560.701,-1255.25 570,-1199.63 570,-1152 570,-1152 570,-1152 570,-748 570,-703.666 593.663,-656.81 610.76,-628.741"/>
<polygon fill="black" stroke="black" points="613.911,-630.304 616.263,-619.973 607.982,-626.583 613.911,-630.304"/>
</g>
<!-- T2_image -->
<g id="node8" class="node"><title>T2_image</title>
<ellipse fill="#e6e6ff" stroke="black" cx="226" cy="-1226" rx="117.459" ry="18"/>
<text text-anchor="middle" x="226" y="-1222.3" font-family="Times,serif" font-size="14.00">NIfTi conversion (FreeSurfer)</text>
</g>
<!-- functionalData&#45;&gt;T2_image -->
<g id="edge17" class="edge"><title>functionalData&#45;&gt;T2_image</title>
<path fill="none" stroke="black" d="M331.645,-1282.88C312.075,-1272.53 286.966,-1259.25 266.136,-1248.23"/>
<polygon fill="black" stroke="black" points="267.679,-1245.09 257.203,-1243.51 264.405,-1251.28 267.679,-1245.09"/>
</g>
<!-- segmentation -->
<g id="node5" class="node"><title>segmentation</title>
<ellipse fill="#ffe6e6" stroke="black" cx="631" cy="-527" rx="104.937" ry="18"/>
<text text-anchor="middle" x="631" y="-523.3" font-family="Times,serif" font-size="14.00">Segmentation (FreeSurfer)</text>
</g>
<!-- T1_image&#45;&gt;segmentation -->
<g id="edge18" class="edge"><title>T1_image&#45;&gt;segmentation</title>
<path fill="none" stroke="black" d="M628.711,-583.7C629.058,-575.245 629.485,-564.869 629.875,-555.373"/>
<polygon fill="black" stroke="black" points="633.38,-555.311 630.294,-545.176 626.386,-555.024 633.38,-555.311"/>
</g>
<!-- coregistration -->
<g id="node23" class="node"><title>coregistration</title>
<ellipse fill="#e6ffe6" stroke="black" cx="371" cy="-527" rx="106.386" ry="18"/>
<text text-anchor="middle" x="371" y="-523.3" font-family="Times,serif" font-size="14.00">Coregistration (FreeSurfer)</text>
</g>
<!-- T1_image&#45;&gt;coregistration -->
<g id="edge19" class="edge"><title>T1_image&#45;&gt;coregistration</title>
<path fill="none" stroke="black" d="M559.888,-587.323C544.707,-583.926 528.744,-580.078 514,-576 483.541,-567.575 450.021,-556.426 423.095,-546.994"/>
<polygon fill="black" stroke="black" points="424.086,-543.632 413.491,-543.605 421.756,-550.233 424.086,-543.632"/>
</g>
<!-- roi -->
<g id="node6" class="node"><title>roi</title>
<ellipse fill="#ffffd8" stroke="black" cx="635" cy="-413" rx="109.286" ry="18"/>
<text text-anchor="middle" x="635" y="-409.3" font-family="Times,serif" font-size="14.00">ROI extraction (FreeSurfer)</text>
</g>
<!-- segmentation&#45;&gt;roi -->
<g id="edge26" class="edge"><title>segmentation&#45;&gt;roi</title>
<path fill="none" stroke="black" d="M631.608,-508.99C632.248,-491.063 633.266,-462.555 634.02,-441.442"/>
<polygon fill="black" stroke="black" points="637.528,-441.289 634.387,-431.17 630.532,-441.039 637.528,-441.289"/>
</g>
<!-- anatomy_estimation -->
<g id="node7" class="node"><title>anatomy_estimation</title>
<ellipse fill="#ffffd8" stroke="black" cx="635" cy="-338" rx="93.3873" ry="18"/>
<text text-anchor="middle" x="635" y="-334.3" font-family="Times,serif" font-size="14.00">ROI analyse output (R)</text>
</g>
<!-- roi&#45;&gt;anatomy_estimation -->
<g id="edge1" class="edge"><title>roi&#45;&gt;anatomy_estimation</title>
<path fill="none" stroke="#ff9721" d="M635,-394.7C635,-386.245 635,-375.869 635,-366.373"/>
<polygon fill="#ff9721" stroke="#ff9721" points="638.5,-366.176 635,-356.176 631.5,-366.176 638.5,-366.176"/>
</g>
<!-- slicetiming -->
<g id="node9" class="node"><title>slicetiming</title>
<ellipse fill="#ffe6e6" stroke="black" cx="191" cy="-1151" rx="83.2892" ry="18"/>
<text text-anchor="middle" x="191" y="-1147.3" font-family="Times,serif" font-size="14.00">Slice Timing (SPM)</text>
</g>
<!-- T2_image&#45;&gt;slicetiming -->
<g id="edge20" class="edge"><title>T2_image&#45;&gt;slicetiming</title>
<path fill="none" stroke="black" d="M217.705,-1207.7C213.491,-1198.91 208.28,-1188.04 203.583,-1178.25"/>
<polygon fill="black" stroke="black" points="206.594,-1176.43 199.114,-1168.92 200.282,-1179.45 206.594,-1176.43"/>
</g>
<!-- realignment -->
<g id="node10" class="node"><title>realignment</title>
<ellipse fill="#ffe6e6" stroke="black" cx="182" cy="-1079" rx="82.3139" ry="18"/>
<text text-anchor="middle" x="182" y="-1075.3" font-family="Times,serif" font-size="14.00">Realignment (SPM)</text>
</g>
<!-- slicetiming&#45;&gt;realignment -->
<g id="edge2" class="edge"><title>slicetiming&#45;&gt;realignment</title>
<path fill="none" stroke="#ff0000" d="M188.775,-1132.7C187.783,-1124.98 186.592,-1115.71 185.486,-1107.11"/>
<polygon fill="#ff0000" stroke="#ff0000" points="188.946,-1106.58 184.199,-1097.1 182.003,-1107.47 188.946,-1106.58"/>
</g>
<!-- artifactdetect -->
<g id="node11" class="node"><title>artifactdetect</title>
<ellipse fill="#ffe6e6" stroke="black" cx="178" cy="-1007" rx="100.611" ry="18"/>
<text text-anchor="middle" x="178" y="-1003.3" font-family="Times,serif" font-size="14.00">Artifact Detection (ART)</text>
</g>
<!-- realignment&#45;&gt;artifactdetect -->
<g id="edge3" class="edge"><title>realignment&#45;&gt;artifactdetect</title>
<path fill="none" stroke="#ff0000" d="M181.011,-1060.7C180.57,-1052.98 180.041,-1043.71 179.549,-1035.11"/>
<polygon fill="#ff0000" stroke="#ff0000" points="183.042,-1034.89 178.977,-1025.1 176.054,-1035.29 183.042,-1034.89"/>
</g>
<!-- smoothing -->
<g id="node12" class="node"><title>smoothing</title>
<ellipse fill="#ffe6e6" stroke="black" cx="164" cy="-935" rx="73.1654" ry="18"/>
<text text-anchor="middle" x="164" y="-931.3" font-family="Times,serif" font-size="14.00">Smoothing (FSL)</text>
</g>
<!-- artifactdetect&#45;&gt;smoothing -->
<g id="edge4" class="edge"><title>artifactdetect&#45;&gt;smoothing</title>
<path fill="none" stroke="#ff0000" d="M174.539,-988.697C172.997,-980.983 171.142,-971.712 169.422,-963.112"/>
<polygon fill="#ff0000" stroke="#ff0000" points="172.814,-962.224 167.421,-953.104 165.95,-963.597 172.814,-962.224"/>
</g>
<!-- modelspec1 -->
<g id="node13" class="node"><title>modelspec1</title>
<ellipse fill="#ffffd8" stroke="black" cx="146" cy="-821" rx="98.1881" ry="18"/>
<text text-anchor="middle" x="146" y="-817.3" font-family="Times,serif" font-size="14.00">Specify Design (Nipype)</text>
</g>
<!-- smoothing&#45;&gt;modelspec1 -->
<g id="edge22" class="edge"><title>smoothing&#45;&gt;modelspec1</title>
<path fill="none" stroke="black" d="M161.266,-916.99C158.372,-898.981 153.761,-870.293 150.364,-849.152"/>
<polygon fill="black" stroke="black" points="153.802,-848.488 148.76,-839.17 146.891,-849.599 153.802,-848.488"/>
</g>
<!-- modelest1 -->
<g id="node14" class="node"><title>modelest1</title>
<ellipse fill="#ffffd8" stroke="black" cx="142" cy="-749" rx="101.087" ry="18"/>
<text text-anchor="middle" x="142" y="-745.3" font-family="Times,serif" font-size="14.00">Model Estimation (SPM)</text>
</g>
<!-- modelspec1&#45;&gt;modelest1 -->
<g id="edge5" class="edge"><title>modelspec1&#45;&gt;modelest1</title>
<path fill="none" stroke="#ff9721" d="M145.011,-802.697C144.57,-794.983 144.041,-785.712 143.549,-777.112"/>
<polygon fill="#ff9721" stroke="#ff9721" points="147.042,-776.888 142.977,-767.104 140.054,-777.288 147.042,-776.888"/>
</g>
<!-- contrastspec1 -->
<g id="node15" class="node"><title>contrastspec1</title>
<ellipse fill="#ffffd8" stroke="black" cx="140" cy="-677" rx="107.361" ry="18"/>
<text text-anchor="middle" x="140" y="-673.3" font-family="Times,serif" font-size="14.00">Specify Contrasts (Nipype)</text>
</g>
<!-- modelest1&#45;&gt;contrastspec1 -->
<g id="edge6" class="edge"><title>modelest1&#45;&gt;contrastspec1</title>
<path fill="none" stroke="#ff9721" d="M141.506,-730.697C141.285,-722.983 141.02,-713.712 140.775,-705.112"/>
<polygon fill="#ff9721" stroke="#ff9721" points="144.273,-705 140.489,-695.104 137.276,-705.2 144.273,-705"/>
</g>
<!-- contrast1 -->
<g id="node16" class="node"><title>contrast1</title>
<ellipse fill="#ffffd8" stroke="black" cx="140" cy="-602" rx="107.336" ry="18"/>
<text text-anchor="middle" x="140" y="-598.3" font-family="Times,serif" font-size="14.00">Contrast Estimation (SPM)</text>
</g>
<!-- contrastspec1&#45;&gt;contrast1 -->
<g id="edge7" class="edge"><title>contrastspec1&#45;&gt;contrast1</title>
<path fill="none" stroke="#ff9721" d="M140,-658.7C140,-650.245 140,-639.869 140,-630.373"/>
<polygon fill="#ff9721" stroke="#ff9721" points="143.5,-630.176 140,-620.176 136.5,-630.176 143.5,-630.176"/>
</g>
<!-- thresh1 -->
<g id="node17" class="node"><title>thresh1</title>
<ellipse fill="#ffffd8" stroke="black" cx="140" cy="-527" rx="69.3156" ry="18"/>
<text text-anchor="middle" x="140" y="-523.3" font-family="Times,serif" font-size="14.00">Threshold (FSL)</text>
</g>
<!-- contrast1&#45;&gt;thresh1 -->
<g id="edge8" class="edge"><title>contrast1&#45;&gt;thresh1</title>
<path fill="none" stroke="#ff9721" d="M140,-583.7C140,-575.245 140,-564.869 140,-555.373"/>
<polygon fill="#ff9721" stroke="#ff9721" points="143.5,-555.176 140,-545.176 136.5,-555.176 143.5,-555.176"/>
</g>
<!-- contrast1&#45;&gt;coregistration -->
<g id="edge21" class="edge"><title>contrast1&#45;&gt;coregistration</title>
<path fill="none" stroke="black" d="M211.684,-588.546C227.742,-585.072 244.582,-580.884 260,-576 283.326,-568.611 308.419,-558.002 328.835,-548.635"/>
<polygon fill="black" stroke="black" points="330.568,-551.689 338.158,-544.297 327.615,-545.343 330.568,-551.689"/>
</g>
<!-- modelspec2 -->
<g id="node18" class="node"><title>modelspec2</title>
<ellipse fill="#ffffd8" stroke="black" cx="365" cy="-338" rx="98.1881" ry="18"/>
<text text-anchor="middle" x="365" y="-334.3" font-family="Times,serif" font-size="14.00">Specify Design (Nipype)</text>
</g>
<!-- modelest2 -->
<g id="node19" class="node"><title>modelest2</title>
<ellipse fill="#ffffd8" stroke="black" cx="363" cy="-266" rx="101.087" ry="18"/>
<text text-anchor="middle" x="363" y="-262.3" font-family="Times,serif" font-size="14.00">Model Estimation (SPM)</text>
</g>
<!-- modelspec2&#45;&gt;modelest2 -->
<g id="edge9" class="edge"><title>modelspec2&#45;&gt;modelest2</title>
<path fill="none" stroke="#ff9721" d="M364.506,-319.697C364.285,-311.983 364.02,-302.712 363.775,-294.112"/>
<polygon fill="#ff9721" stroke="#ff9721" points="367.273,-294 363.489,-284.104 360.276,-294.2 367.273,-294"/>
</g>
<!-- contrastspec2 -->
<g id="node20" class="node"><title>contrastspec2</title>
<ellipse fill="#ffffd8" stroke="black" cx="362" cy="-194" rx="107.361" ry="18"/>
<text text-anchor="middle" x="362" y="-190.3" font-family="Times,serif" font-size="14.00">Specify Contrasts (Nipype)</text>
</g>
<!-- modelest2&#45;&gt;contrastspec2 -->
<g id="edge10" class="edge"><title>modelest2&#45;&gt;contrastspec2</title>
<path fill="none" stroke="#ff9721" d="M362.753,-247.697C362.643,-239.983 362.51,-230.712 362.387,-222.112"/>
<polygon fill="#ff9721" stroke="#ff9721" points="365.887,-222.053 362.244,-212.104 358.888,-222.153 365.887,-222.053"/>
</g>
<!-- contrast2 -->
<g id="node21" class="node"><title>contrast2</title>
<ellipse fill="#ffffd8" stroke="black" cx="362" cy="-122" rx="107.336" ry="18"/>
<text text-anchor="middle" x="362" y="-118.3" font-family="Times,serif" font-size="14.00">Contrast Estimation (SPM)</text>
</g>
<!-- contrastspec2&#45;&gt;contrast2 -->
<g id="edge11" class="edge"><title>contrastspec2&#45;&gt;contrast2</title>
<path fill="none" stroke="#ff9721" d="M362,-175.697C362,-167.983 362,-158.712 362,-150.112"/>
<polygon fill="#ff9721" stroke="#ff9721" points="365.5,-150.104 362,-140.104 358.5,-150.104 365.5,-150.104"/>
</g>
<!-- thresh2 -->
<g id="node22" class="node"><title>thresh2</title>
<ellipse fill="#ffffd8" stroke="black" cx="362" cy="-50" rx="69.3156" ry="18"/>
<text text-anchor="middle" x="362" y="-46.3" font-family="Times,serif" font-size="14.00">Threshold (FSL)</text>
</g>
<!-- contrast2&#45;&gt;thresh2 -->
<g id="edge12" class="edge"><title>contrast2&#45;&gt;thresh2</title>
<path fill="none" stroke="#ff9721" d="M362,-103.697C362,-95.9827 362,-86.7125 362,-78.1124"/>
<polygon fill="#ff9721" stroke="#ff9721" points="365.5,-78.1043 362,-68.1043 358.5,-78.1044 365.5,-78.1043"/>
</g>
<!-- coregistration&#45;&gt;roi -->
<g id="edge23" class="edge"><title>coregistration&#45;&gt;roi</title>
<path fill="none" stroke="black" d="M431.513,-512.084C450.537,-506.952 471.419,-500.523 490,-493 529.203,-477.128 571.378,-453.313 600.08,-435.981"/>
<polygon fill="black" stroke="black" points="602.189,-438.794 608.904,-430.599 598.544,-432.818 602.189,-438.794"/>
</g>
<!-- normalization -->
<g id="node24" class="node"><title>normalization</title>
<ellipse fill="#e6ffe6" stroke="black" cx="369" cy="-413" rx="91.4625" ry="18"/>
<text text-anchor="middle" x="369" y="-409.3" font-family="Times,serif" font-size="14.00">Normalization (ANTs)</text>
</g>
<!-- coregistration&#45;&gt;normalization -->
<g id="edge24" class="edge"><title>coregistration&#45;&gt;normalization</title>
<path fill="none" stroke="black" d="M370.696,-508.99C370.376,-491.063 369.867,-462.555 369.49,-441.442"/>
<polygon fill="black" stroke="black" points="372.985,-441.106 369.307,-431.17 365.986,-441.231 372.985,-441.106"/>
</g>
<!-- normalization&#45;&gt;modelspec2 -->
<g id="edge25" class="edge"><title>normalization&#45;&gt;modelspec2</title>
<path fill="none" stroke="black" d="M368.052,-394.7C367.589,-386.245 367.02,-375.869 366.5,-366.373"/>
<polygon fill="black" stroke="black" points="369.983,-365.969 365.941,-356.176 362.994,-366.352 369.983,-365.969"/>
</g>
<!-- template -->
<g id="node25" class="node"><title>template</title>
<ellipse fill="#e6ffe6" stroke="black" cx="371" cy="-602" rx="74.1402" ry="18"/>
<text text-anchor="middle" x="371" y="-598.3" font-family="Times,serif" font-size="14.00">Template (ANTs)</text>
</g>
<!-- template&#45;&gt;coregistration -->
<g id="edge13" class="edge"><title>template&#45;&gt;coregistration</title>
<path fill="none" stroke="#00a300" d="M371,-583.7C371,-575.245 371,-564.869 371,-555.373"/>
<polygon fill="#00a300" stroke="#00a300" points="374.5,-555.176 371,-545.176 367.5,-555.176 374.5,-555.176"/>
</g>
</g>
</svg>
